<svg xmlns="http://www.w3.org/2000/svg" xmlns:xlink="http://www.w3.org/1999/xlink" viewBox="0 0 800 608.68"><defs><style>.cls-1,.cls-28{fill:#c7e4f0;}.cls-1,.cls-10,.cls-12,.cls-14,.cls-16,.cls-17,.cls-20,.cls-21,.cls-22,.cls-24,.cls-26,.cls-31,.cls-33,.cls-38,.cls-7{mix-blend-mode:multiply;}.cls-2{fill:none;}.cls-3{isolation:isolate;}.cls-4{fill:#fff;}.cls-5{opacity:0.43;}.cls-6{fill:url(#radial-gradient);}.cls-7{fill:url(#linear-gradient);}.cls-8{fill:#b3deff;}.cls-9{fill:#8fc7ea;}.cls-10{fill:url(#linear-gradient-2);}.cls-11,.cls-12{fill:#f7c651;}.cls-13{fill:#0f3871;}.cls-14,.cls-24,.cls-26,.cls-29{fill:#bec3ce;}.cls-15,.cls-16{fill:#fdd2b9;}.cls-17{fill:#c591a5;}.cls-18{fill:#ff9975;}.cls-19{fill:#ef7970;}.cls-20{fill:#db967f;}.cls-21{fill:#f48baa;}.cls-22{fill:#d1dee0;}.cls-23{fill:#94c7d3;}.cls-24{opacity:0.4;}.cls-25{fill:#e1e4ea;}.cls-26{opacity:0.8;}.cls-27,.cls-31{fill:#ffc55e;}.cls-30{clip-path:url(#clip-path);}.cls-32,.cls-33{fill:#60c967;}.cls-34{fill:#8aed8a;}.cls-35{clip-path:url(#clip-path-2);}.cls-36{fill:#87d4ff;}.cls-37{fill:#bbeaff;}</style><radialGradient id="radial-gradient" cx="371.32" cy="236.58" r="320.1" gradientTransform="translate(-54.31 -82.3) scale(1.15 1.16)" gradientUnits="userSpaceOnUse"><stop offset="0" stop-color="#f6f7fc"/><stop offset="0.31" stop-color="#f3f6fc"/><stop offset="0.51" stop-color="#ebf2fc"/><stop offset="0.68" stop-color="#dcebfc"/><stop offset="0.83" stop-color="#c7e1fc"/><stop offset="0.97" stop-color="#acd4fc"/><stop offset="1" stop-color="#a6d1fc"/></radialGradient><linearGradient id="linear-gradient" x1="634.7" y1="536.28" x2="670.78" y2="536.28" gradientUnits="userSpaceOnUse"><stop offset="0" stop-color="#fff"/><stop offset="0.35" stop-color="#e9f5ff"/><stop offset="0.7" stop-color="#dbefff"/><stop offset="1" stop-color="#d6edff"/></linearGradient><linearGradient id="linear-gradient-2" x1="150.88" y1="538.56" x2="189.76" y2="538.56" xlink:href="#linear-gradient"/><clipPath id="clip-path" transform="translate(0 8.68)"><path class="cls-1" d="M288.75,353.2c3.93,2.67,11.15-1.1,16.12-8.41s5.82-15.42,1.89-18.09-11.15,1.09-16.12,8.41S284.82,350.52,288.75,353.2Z"/></clipPath><clipPath id="clip-path-2" transform="translate(0 8.68)"><path class="cls-2" d="M376.91,169.89a43.29,43.29,0,0,0-58.76-40.42,64,64,0,0,0-112.84,30.19A29.16,29.16,0,0,0,175.92,209a58.56,58.56,0,0,0,72.77,75.29A73.76,73.76,0,0,0,366.4,198.16,43.12,43.12,0,0,0,376.91,169.89Z"/></clipPath></defs><g class="cls-3"><g id="Layer_9" data-name="Layer 9"><rect class="cls-4" y="8.68" width="800" height="600"/></g><g id="Layer_7" data-name="Layer 7"><g class="cls-5"><path class="cls-6" d="M150.56,481.92h505c-18.75-36.48-76.58-80.41-75.72-141.18,1.08-76.08,51.6-110.29,45.57-140.09-23.31-115.13-138.27,34.17-276-26.05-203.69-89.08-134.13,133.5-180,183.52C122.85,408.85,156.91,409.66,150.56,481.92Z" transform="translate(0 8.68)"/></g><path class="cls-7" d="M635.33,535.66c-2.83,1,4.26,3.34,14.79,3.24,11.24-.1,22.75,2.59,20.34-1.14-4.17-6.44-2.2-4.76-19.8-4.76S640.49,533.87,635.33,535.66Z" transform="translate(0 8.68)"/><path class="cls-8" d="M636.36,503.72c2,1.24,4.91,1.59,5.58-.39s-1.41-4.8-3.47-5.91a10.36,10.36,0,0,0-9.38-.1C631.58,498.84,634.34,502.49,636.36,503.72Z" transform="translate(0 8.68)"/><path class="cls-9" d="M641.94,503.33c.62-1.87-1.41-4.8-3.47-5.91a10.36,10.36,0,0,0-9.38-.1A20.92,20.92,0,0,1,641.94,503.33Z" transform="translate(0 8.68)"/><path class="cls-9" d="M641.1,502.43l-.36-.31c-.12-.11-.26-.23-.43-.36s-.36-.29-.58-.44l-.35-.25-.37-.24c-.26-.18-.55-.34-.85-.52-.6-.33-1.26-.67-2-1a32.92,32.92,0,0,0-3.63-1.3l-1.5-.45s.57.13,1.5.37a26.66,26.66,0,0,1,3.64,1.24,19.43,19.43,0,0,1,2,1c.3.19.58.35.84.54l.38.26.34.26c.22.16.41.33.58.47a4.21,4.21,0,0,1,.42.37Z" transform="translate(0 8.68)"/><path class="cls-8" d="M627.66,481.38c2.26,6.2,8.46,12.43,14.27,10,5.49-2.28,6.79-11.63,4.18-17.67-6.14-14.21-22.38-18.29-22.38-18.29C626.51,463.09,625.41,475.18,627.66,481.38Z" transform="translate(0 8.68)"/><path class="cls-8" d="M654.83,499.47c-2.42,3.3-6.8,5.76-9.16,3-2.23-2.58-.91-8.58,1.65-11.71a17.89,17.89,0,0,1,14.91-6.33C659.25,488.53,657.25,496.16,654.83,499.47Z" transform="translate(0 8.68)"/><path class="cls-9" d="M645.67,502.5c-2.23-2.58-.91-8.58,1.65-11.71a17.89,17.89,0,0,1,14.91-6.33C649.29,491.63,645.67,502.5,645.67,502.5Z" transform="translate(0 8.68)"/><path class="cls-9" d="M646.41,500.51l.37-.74c.12-.23.27-.52.46-.84s.38-.7.64-1.09l.38-.62.44-.64c.3-.45.65-.9,1-1.38.74-.93,1.58-1.9,2.5-2.86a58.81,58.81,0,0,1,4.94-4.46l2.11-1.71s-.83.58-2.15,1.58a46,46,0,0,0-5,4.37,34.05,34.05,0,0,0-2.51,2.92c-.35.49-.7.95-1,1.42-.15.23-.3.44-.43.66l-.37.64c-.25.4-.44.79-.62,1.12s-.32.63-.43.87Z" transform="translate(0 8.68)"/><path class="cls-9" d="M641.93,491.4c5.49-2.28,6.79-11.63,4.18-17.67-6.14-14.21-22.38-18.29-22.38-18.29C642.14,473.7,641.93,491.4,641.93,491.4Z" transform="translate(0 8.68)"/><path class="cls-9" d="M641.93,491.4c5.49-2.28,6.79-11.63,4.18-17.67-6.14-14.21-22.38-18.29-22.38-18.29C642.14,473.7,641.93,491.4,641.93,491.4Z" transform="translate(0 8.68)"/><path class="cls-9" d="M641.84,488.11l-.22-1.28c-.06-.41-.14-.91-.28-1.49s-.26-1.23-.47-1.94c-.1-.36-.2-.73-.3-1.12s-.26-.78-.39-1.19c-.25-.83-.6-1.67-.94-2.58a57.42,57.42,0,0,0-2.67-5.62,97.58,97.58,0,0,0-6-9.43l-2.68-3.73s1.11,1.34,2.83,3.59a74.57,74.57,0,0,1,6.16,9.33,51.81,51.81,0,0,1,2.64,5.7c.32.93.65,1.79.88,2.64.13.41.26.82.36,1.21l.27,1.14c.19.72.29,1.39.4,2a13.75,13.75,0,0,1,.22,1.51C641.78,487.65,641.84,488.11,641.84,488.11Z" transform="translate(0 8.68)"/><path class="cls-8" d="M640.32,533.94h5.77c3.88,0,7-.3,7-5.22l2.94-15.52c0-4.92-3.17-4.47-7.05-4.47H636.8c-3.88,0-7-.45-7,4.47l2.94,15.52C632.69,533.64,636.45,533.94,640.32,533.94Z" transform="translate(0 8.68)"/><path class="cls-9" d="M649,508.73h-4.75c3,.31,5.79,1.19,7.13,4.1s.58,7.66.27,10.76c-.45,4.51-3.07,7.93-7.91,7.78-2.49-.08-4.91-.55-7.43-.55l-3.35,0c1,2.92,4.1,3.14,7.33,3.14h5.77c3.88,0,7-.3,7-5.22l2.94-15.52C656.08,508.28,652.91,508.73,649,508.73Z" transform="translate(0 8.68)"/><path class="cls-10" d="M155.4,540.22c19.67,2.2,28.19,4.36,32.5,3.54,7.22-1.38-8.23-10.74-17.19-10.57C153.37,533.52,145.08,539.06,155.4,540.22Z" transform="translate(0 8.68)"/><path class="cls-8" d="M158,506.16c2,1.22,4.84,1.57,5.49-.39S162.1,501,160.06,500a10.21,10.21,0,0,0-9.24-.1C153.28,501.35,156,504.94,158,506.16Z" transform="translate(0 8.68)"/><path class="cls-9" d="M163.48,505.77c.62-1.85-1.38-4.73-3.42-5.82a10.21,10.21,0,0,0-9.24-.1A20.56,20.56,0,0,1,163.48,505.77Z" transform="translate(0 8.68)"/><path class="cls-9" d="M162.66,504.88l-.36-.31a4.36,4.36,0,0,0-.42-.34c-.17-.13-.36-.29-.57-.44l-.34-.24-.38-.24a9.12,9.12,0,0,0-.83-.51c-.59-.33-1.24-.66-1.94-1a33.3,33.3,0,0,0-3.58-1.28l-1.48-.44s.56.12,1.48.36a26.78,26.78,0,0,1,3.59,1.22,18.85,18.85,0,0,1,2,1c.29.18.58.35.83.53s.26.17.37.26l.34.25c.22.16.4.32.57.46s.3.26.41.37Z" transform="translate(0 8.68)"/><path class="cls-8" d="M149.41,484.14c2.23,6.11,8.34,12.24,14.07,9.87,5.41-2.24,6.69-11.46,4.12-17.41-6-14-22.06-18-22.06-18C148.28,466.1,147.19,478,149.41,484.14Z" transform="translate(0 8.68)"/><path class="cls-8" d="M176.19,502c-2.39,3.26-6.7,5.69-9,3-2.2-2.54-.89-8.46,1.63-11.54a17.66,17.66,0,0,1,14.7-6.24C180.55,491.18,178.57,498.71,176.19,502Z" transform="translate(0 8.68)"/><path class="cls-9" d="M167.16,505c-2.2-2.54-.89-8.46,1.63-11.54a17.66,17.66,0,0,1,14.7-6.24C170.73,494.24,167.16,505,167.16,505Z" transform="translate(0 8.68)"/><path class="cls-9" d="M167.89,503l.37-.72c.12-.24.26-.52.45-.84s.38-.69.63-1.07l.38-.61c.13-.21.28-.41.43-.63.3-.45.64-.88,1-1.36a35.9,35.9,0,0,1,2.46-2.82,59.23,59.23,0,0,1,4.87-4.4l2.08-1.68s-.82.57-2.12,1.56a43.82,43.82,0,0,0-4.94,4.31A33,33,0,0,0,171,497.6c-.35.49-.69.94-1,1.4-.14.23-.29.44-.42.65l-.37.63c-.24.39-.43.78-.6,1.11s-.32.62-.43.86Z" transform="translate(0 8.68)"/><path class="cls-9" d="M163.48,494c5.41-2.24,6.69-11.46,4.12-17.41-6-14-22.06-18-22.06-18C163.69,476.56,163.48,494,163.48,494Z" transform="translate(0 8.68)"/><path class="cls-9" d="M163.48,494c5.41-2.24,6.69-11.46,4.12-17.41-6-14-22.06-18-22.06-18C163.69,476.56,163.48,494,163.48,494Z" transform="translate(0 8.68)"/><path class="cls-9" d="M163.38,490.77l-.2-1.26c-.07-.41-.15-.9-.29-1.47s-.25-1.22-.46-1.91c-.09-.35-.19-.72-.3-1.1s-.25-.77-.38-1.18c-.24-.81-.59-1.65-.92-2.54a58.21,58.21,0,0,0-2.63-5.55,98,98,0,0,0-5.89-9.28l-2.65-3.69s1.1,1.32,2.8,3.54a75.56,75.56,0,0,1,6.07,9.2,52.18,52.18,0,0,1,2.6,5.62c.32.91.64,1.76.87,2.6.12.41.25.81.35,1.19s.18.77.27,1.12c.19.71.29,1.38.39,1.95s.18,1.08.23,1.49Z" transform="translate(0 8.68)"/><path class="cls-8" d="M161.89,535.94h5.69c3.82,0,6.95-.29,6.95-5.14l2.89-15.3c0-4.85-3.12-4.41-6.94-4.41H158.42c-3.82,0-6.95-.44-6.95,4.41l2.9,15.3C154.37,535.65,158.07,535.94,161.89,535.94Z" transform="translate(0 8.68)"/><path class="cls-9" d="M170.48,511.09h-4.69c2.92.31,5.72,1.18,7,4.05s.57,7.55.27,10.6c-.44,4.45-3,7.82-7.8,7.67-2.46-.07-4.84-.54-7.32-.54l-3.31,0c1,2.88,4.05,3.09,7.23,3.09h5.69c3.82,0,6.95-.29,6.95-5.14l2.89-15.3C177.42,510.65,174.3,511.09,170.48,511.09Z" transform="translate(0 8.68)"/><path class="cls-11" d="M564.23,350.9,532,418.65a10.56,10.56,0,0,1-13.44,6.52l-51.73-21.69c-5.47-1.93-25.27-5.22-23.32-10.75l35.85-80.65Z" transform="translate(0 8.68)"/><path class="cls-12" d="M564.23,350.9,532,418.65a10.56,10.56,0,0,1-13.44,6.52l-53.16-28c-5.46-1.93-23.84,1.12-21.89-4.41l35.85-80.65Z" transform="translate(0 8.68)"/><path class="cls-11" d="M555,349.55l-33.15,67.63a10.57,10.57,0,0,1-13.44,6.52l-56.26-19.49c-5.47-1.93-10.6-5.95-8.65-11.48l34.68-78.15Z" transform="translate(0 8.68)"/><path class="cls-11" d="M562.79,340.33l-85.31-30.14-.58,4a8.29,8.29,0,0,1-.28,4.61,7.47,7.47,0,0,1-.57,1.25l-1,7.08,82.18,29a8.38,8.38,0,0,0,5.58-15.81Z" transform="translate(0 8.68)"/><path class="cls-12" d="M475.35,348.13a.79.79,0,0,0,.48,1l56.74,19.19a.81.81,0,0,0,1-.51h0a.8.8,0,0,0-.49-1l-56.74-19.2a.8.8,0,0,0-1,.52Z" transform="translate(0 8.68)"/><path class="cls-12" d="M463.49,363.52a.86.86,0,0,0,.53,1.1l61.46,20.79a.86.86,0,0,0,1.09-.56h0a.85.85,0,0,0-.53-1.1L464.58,363a.86.86,0,0,0-1.09.56Z" transform="translate(0 8.68)"/><path class="cls-13" d="M452.33,455.27v-7.75a6.18,6.18,0,0,1,12.36,0v7.75Z" transform="translate(0 8.68)"/><path class="cls-14" d="M455.87,454a13,13,0,0,0-.43,1.29h-3.11v-7.75a6.18,6.18,0,0,1,12.36,0v4.35c-1.33.62-5.2.59-6,.6A3,3,0,0,0,455.87,454Z" transform="translate(0 8.68)"/><path class="cls-11" d="M404,428.6c0,8.71,13.18,9.06,29.39,9.89,15.68.8,9.41,9.89,28,9.89s15.65-9.51,29.57-9.89c17.44-.48,25.15-2.16,24.29-8.92Z" transform="translate(0 8.68)"/><path class="cls-12" d="M404,428.6c0,8.71,13.18,9.06,29.39,9.89,15.68.8,9.41,9.89,28,9.89s15.65-9.51,29.57-9.89c17.44-.48,25.15-2.16,24.29-8.92Z" transform="translate(0 8.68)"/><path class="cls-11" d="M387.77,428.6c0,8.71,13.19,9.06,29.39,9.89,15.69.8,9.41,9.89,28,9.89h16c7.15-2.75,3.44-9.61,13.61-9.89,17.45-.48,25.16-2.16,24.29-8.92Z" transform="translate(0 8.68)"/><path class="cls-13" d="M405.8,428.6a5.82,5.82,0,0,0,5.82,5.82h99.59A5.82,5.82,0,0,0,517,428.6h0a5.82,5.82,0,0,0-5.81-5.82H411.62a5.82,5.82,0,0,0-5.82,5.82Z" transform="translate(0 8.68)"/><path class="cls-14" d="M405.8,428.6a5.82,5.82,0,0,0,5.82,5.82h99.59A5.82,5.82,0,0,0,517,428.6h0a5.82,5.82,0,0,0-5.81-5.82H411.62a5.82,5.82,0,0,0-5.82,5.82Z" transform="translate(0 8.68)"/><path class="cls-13" d="M487.72,422.76h-9.26l2.81-19.2a4.57,4.57,0,1,1,9.05,1.32Z" transform="translate(0 8.68)"/><path class="cls-14" d="M489.43,413c-2.79-.15-5.62.26-6.94,3.09a15.18,15.18,0,0,0-1.8,5.92c0,.24-.07.48-.11.72h-2.12l2.81-19.2a4.57,4.57,0,1,1,9.05,1.32Z" transform="translate(0 8.68)"/><path class="cls-13" d="M436.92,523.09a5,5,0,1,0,5-5A5,5,0,0,0,436.92,523.09Z" transform="translate(0 8.68)"/><path class="cls-14" d="M436.92,523.09a5,5,0,1,0,5-5A5,5,0,0,0,436.92,523.09Z" transform="translate(0 8.68)"/><path class="cls-13" d="M437.63,522.39c.87-5.57,8.85-4.42,8.68.25.73.17,1.76.25,1.88-.38a6.4,6.4,0,1,0-12.48.47C436.26,523.37,437.52,523.09,437.63,522.39Z" transform="translate(0 8.68)"/><path class="cls-14" d="M437.63,522.39c.87-5.57,8.85-4.42,8.68.25.73.17,1.76.25,1.88-.38a6.4,6.4,0,1,0-12.48.47C436.26,523.37,437.52,523.09,437.63,522.39Z" transform="translate(0 8.68)"/><path class="cls-14" d="M437.63,522.39c.87-5.57,8.85-4.42,8.68.25.73.17,1.76.25,1.88-.38a6.4,6.4,0,1,0-12.48.47C436.26,523.37,437.52,523.09,437.63,522.39Z" transform="translate(0 8.68)"/><path class="cls-13" d="M477.57,523.09a5,5,0,1,1-5-5A5,5,0,0,1,477.57,523.09Z" transform="translate(0 8.68)"/><path class="cls-14" d="M477.57,523.09a5,5,0,1,1-5-5A5,5,0,0,1,477.57,523.09Z" transform="translate(0 8.68)"/><path class="cls-13" d="M476.86,522.39c-.88-5.57-8.85-4.42-8.68.25-.73.17-1.76.25-1.88-.38a6.4,6.4,0,1,1,12.48.47C478.22,523.37,477,523.09,476.86,522.39Z" transform="translate(0 8.68)"/><path class="cls-14" d="M476.86,522.39c-.88-5.57-8.85-4.42-8.68.25-.73.17-1.76.25-1.88-.38a6.4,6.4,0,1,1,12.48.47C478.22,523.37,477,523.09,476.86,522.39Z" transform="translate(0 8.68)"/><path class="cls-14" d="M476.86,522.39c-.88-5.57-8.85-4.42-8.68.25-.73.17-1.76.25-1.88-.38a6.4,6.4,0,1,1,12.48.47C478.22,523.37,477,523.09,476.86,522.39Z" transform="translate(0 8.68)"/><path class="cls-13" d="M450.23,465.39v32.54a5.77,5.77,0,1,0,11.53,0V465.39Z" transform="translate(0 8.68)"/><path class="cls-14" d="M450.23,465.39v.83c1.24.58,4.84.56,5.56.57a2.78,2.78,0,0,1,2.66,1.41c1.31,3.11,1.1,8.55,1,11.79-.06,3.4.46,13-4.64,13.07-2.39,0-3.45.35-4.62,1.76v3.11a5.77,5.77,0,1,0,11.53,0V465.39Z" transform="translate(0 8.68)"/><path class="cls-13" d="M466.43,513.74v-9.5a9.3,9.3,0,0,0-9.3-9.31H455a9.31,9.31,0,0,0-9.3,9.31v9.5Z" transform="translate(0 8.68)"/><path class="cls-14" d="M457.13,494.93H455a9.25,9.25,0,0,0-2.25.29c3-.12,5.47,1.85,6.71,5.14a20.45,20.45,0,0,1,.59,13.38h6.35v-9.5A9.3,9.3,0,0,0,457.13,494.93Z" transform="translate(0 8.68)"/><path class="cls-13" d="M459.56,513.74a3.74,3.74,0,0,1-3.75,3.74H419.22a3.74,3.74,0,0,1-3.75-3.74h0a3.75,3.75,0,0,1,3.75-3.75h36.59a3.75,3.75,0,0,1,3.75,3.75Z" transform="translate(0 8.68)"/><path class="cls-13" d="M415.08,523.09a5,5,0,1,0,5-5A5,5,0,0,0,415.08,523.09Z" transform="translate(0 8.68)"/><path class="cls-14" d="M420.06,518.12a5,5,0,0,0-4.71,6.58,12.65,12.65,0,0,1,1.76-2.64c1.17-1.22,3-1.57,4.19-.17a2.23,2.23,0,0,1,.33.55,3.34,3.34,0,0,1-.19,4.54,3.52,3.52,0,0,1-1.88,1,4.23,4.23,0,0,0,.5.05,5,5,0,0,0,0-10Z" transform="translate(0 8.68)"/><path class="cls-13" d="M415.79,522.39c.88-5.57,8.85-4.42,8.68.25.73.17,1.76.25,1.88-.38a6.4,6.4,0,1,0-12.48.47C414.42,523.37,415.68,523.09,415.79,522.39Z" transform="translate(0 8.68)"/><path class="cls-13" d="M452.61,513.74a3.74,3.74,0,0,0,3.74,3.74h36.59a3.74,3.74,0,0,0,3.75-3.74h0a3.75,3.75,0,0,0-3.75-3.75H456.35a3.75,3.75,0,0,0-3.74,3.75Z" transform="translate(0 8.68)"/><path class="cls-14" d="M452.61,513.74a3.74,3.74,0,0,0,3.74,3.74h36.59a3.74,3.74,0,0,0,3.75-3.74h0a3.75,3.75,0,0,0-3.75-3.75H456.35a3.75,3.75,0,0,0-3.74,3.75Z" transform="translate(0 8.68)"/><path class="cls-13" d="M497.08,523.09a5,5,0,1,1-5-5A5,5,0,0,1,497.08,523.09Z" transform="translate(0 8.68)"/><path class="cls-14" d="M492.11,518.12a5,5,0,0,0-4.71,3.37A9.15,9.15,0,0,1,490,521c2.05-.69,5,1.3,4.46,3.61-.45,1.9-2.72,2.75-4.74,2.78a4.91,4.91,0,0,0,2.44.65,5,5,0,0,0,0-10Z" transform="translate(0 8.68)"/><path class="cls-13" d="M496.37,522.39c-.87-5.57-8.85-4.42-8.68.25-.73.17-1.76.25-1.88-.38a6.4,6.4,0,1,1,12.48.47C497.74,523.37,496.48,523.09,496.37,522.39Z" transform="translate(0 8.68)"/><path class="cls-15" d="M524.73,319.06s-9.37,2.89-14.33,2-16.84-1.55-11.28-6.62c2-1.86,9-7.68,8.4-15.57-.9-11.79,19.65-11.77,18.39-3.83C524.91,301.36,522.43,306.14,524.73,319.06Z" transform="translate(0 8.68)"/><path class="cls-16" d="M499.12,314.44c2-1.86,9-7.68,8.4-15.57-.9-11.79,19.65-11.77,18.39-3.83-.83,5.24-2.67,9.44-2,18.08-1.67,2.43-6.67.91-7,.79-2.13-.87-5.66-3.68-7.93-4-5.32-.65-6.54,2.63-10.85,6.78a9.54,9.54,0,0,0-1.19,1.39C495.24,317.16,497.12,316.26,499.12,314.44Z" transform="translate(0 8.68)"/><path class="cls-4" d="M524.92,319.44l-18.72,1.49c.16-.18-2.35-10.07-2.19-10.25-1.39-.47.11-.32-1.57-.53,0,0-19.57-3.36-23.65,5.57l-16.45,85.44c-.46,2.82,5.93,12.21,14.45,15.1s22.25,2.68,24-1.5l39.31-80.52C538.66,330.35,533.23,322.36,524.92,319.44Z" transform="translate(0 8.68)"/><path class="cls-17" d="M494,374.61c-2.78,2.73-7.53,5.56-8.39,5.24s-2.65-7.39-2.79-9.43c-.11-1.62,18.22-36,22.7-48.23l3.06,1.15C502.52,340.44,495.05,373.55,494,374.61Z" transform="translate(0 8.68)"/><path class="cls-18" d="M492.37,374.47c-2.83,2.51-7.66,5-8.52,4.66s-2.56-7.28-2.67-9.27c-.09-1.56,18.84-33.94,23.52-45.58l3.06,1.26C501.44,341.8,493.46,373.5,492.37,374.47Z" transform="translate(0 8.68)"/><path class="cls-17" d="M492.81,373.55c2.59-8.09,9.64-34.35,14.95-48l-3.16-1c-.33,1.26,2.25,1.37,1.73,2.92-2.74,8.15-9.16,29.44-12.22,40.36A43.18,43.18,0,0,0,492.81,373.55Z" transform="translate(0 8.68)"/><path class="cls-18" d="M504,321.06a3.45,3.45,0,0,0,2.16,4.37l.68.23a3.46,3.46,0,0,0,4.38-2.16h0a3.45,3.45,0,0,0-2.17-4.38l-.68-.23a3.45,3.45,0,0,0-4.37,2.17Z" transform="translate(0 8.68)"/><path class="cls-17" d="M503.92,321a3.45,3.45,0,0,0,2.16,4.37l.68.23a3.45,3.45,0,0,0,4.38-2.16h0a3.45,3.45,0,0,0-2.17-4.37l-.68-.23a3.45,3.45,0,0,0-4.37,2.16Z" transform="translate(0 8.68)"/><path class="cls-13" d="M524.92,319.44s-33.43,24.33-44.37,67.62c0,0,23.3-76.2,23.46-76.38-1.39-.47.11-.32-1.57-.53,0,0-21.06-5.36-25.14,3.57L457.11,400.4c-.47,2.82,11.16,13,19.68,15.86s25.74,3.18,27.52-1l39.31-80.51C542.15,330.85,533.23,322.36,524.92,319.44Z" transform="translate(0 8.68)"/><path class="cls-13" d="M495.84,312.56c2.27,6.07-8.74,15.15-11.46,20.6l-11-.66c-3.42-7.28-13.25-30.94-15.38-36.62l-6.68-20.38c-.62-2,10.37-11.23,10.37-11.23C478,289.32,495.84,312.56,495.84,312.56Z" transform="translate(0 8.68)"/><path class="cls-13" d="M503.13,263.65l-46.68.75c-7.71,0-8.43,17,2.92,16.51,5.27.77,48.49-10.86,48-11.25A10.43,10.43,0,0,1,503.13,263.65Z" transform="translate(0 8.68)"/><path class="cls-15" d="M520.66,263.94c1,3.38-2.45,7.3-7.59,8.75s-10.08-.11-11-3.5,2.45-7.3,7.58-8.75S519.7,260.55,520.66,263.94Z" transform="translate(0 8.68)"/><path class="cls-13" d="M525.81,324.07c-5.79,2.9-3.9,17.05-5.61,22.89l8.53,7c7.46-3,30.77-13.66,36.19-16.37l18.76-10.4c1.8-1,0-15.29,0-15.29C554.71,319.18,525.81,324.07,525.81,324.07Z" transform="translate(0 8.68)"/><polygon class="cls-15" points="444.11 535.52 454.33 536.89 456.8 521.05 446.59 519.68 444.11 535.52"/><path class="cls-16" d="M456.8,512.37l-.86,5.5a4.1,4.1,0,0,0-1.9-.39c-2.72.1-5.1.18-6.31,2.83-.68,1.47-.07,3.46.25,4.94.14.72.29,1.44.41,2.17l-4.28-.58L446.59,511Z" transform="translate(0 8.68)"/><path class="cls-19" d="M418.65,533.92a6.39,6.39,0,0,1-.22-1.89c-.12-1.78,10.19-4.66,16.57-6.23,1.24-.3,3.81-1.38,4.54-2.3s.23-.86.83-.59c1.87.85,3.27-.25,4.74-.27l.71,13.34c-8.85.15-22.43.26-25.32.29-1.79,0-1.83-.83-1.9-1.89A2.24,2.24,0,0,1,418.65,533.92Z" transform="translate(0 8.68)"/><path class="cls-17" d="M418.65,533.92a6.39,6.39,0,0,1-.22-1.89c-.12-1.78,10.19-4.66,16.57-6.23,1.24-.3,3.81-1.38,4.54-2.3s.23-.86.83-.59c1.87.85,3-.24,4.74-.27l.71,13.34c-8.85.15-22.43.26-25.32.29-1.79,0-1.83-.83-1.9-1.89A2.24,2.24,0,0,1,418.65,533.92Z" transform="translate(0 8.68)"/><path class="cls-13" d="M445.69,533.52l.13,2.46c-8.85.15-22.44.26-25.32.29-1.79,0-1.83-.83-1.9-1.89a1.4,1.4,0,0,1,0-.41Z" transform="translate(0 8.68)"/><path class="cls-20" d="M445.7,533.63l.12,2.35c-8.85.15-22.43.26-25.32.29-1.79,0-1.83-.83-1.9-1.89a1.39,1.39,0,0,1,0-.3Z" transform="translate(0 8.68)"/><path class="cls-13" d="M427,534.23c.08,1.06.11,1.92,1.64,1.9,3.62,0,27-.06,28.18-.35a1.92,1.92,0,0,0,1.38-1.95h0a1.88,1.88,0,0,0-1.64-1.9l-28.18.36c-.83,0-1.44.87-1.38,1.94Z" transform="translate(0 8.68)"/><path class="cls-19" d="M458.12,533.06c.1.68-9.57.6-30.74.82-.5,0-.41,0-.55-2-.12-1.77,8.65-4.6,14.08-6.14,1.06-.29,3.25-1.35,3.85-2.26s.19-.87.71-.6c9.94,5.33,8.82-1.64,10.41-.86C457.78,523,458,531.87,458.12,533.06Z" transform="translate(0 8.68)"/><path class="cls-13" d="M444.33,527.8c.05.12.21.15.36.07h0a.36.36,0,0,0,.16-.4l-1.37-3.23c-.05-.13-.21-.16-.36-.08h0a.35.35,0,0,0-.16.4Z" transform="translate(0 8.68)"/><path class="cls-13" d="M441.27,528.25c0,.11.18.13.34.06h0c.15-.06.25-.21.21-.31l-.87-2.67c0-.1-.19-.14-.34-.07h0a.32.32,0,0,0-.21.33Z" transform="translate(0 8.68)"/><path class="cls-13" d="M438.67,528.54c0,.07.16.07.32,0h0c.15-.06.27-.17.25-.23l-.5-1.68c0-.07-.17-.08-.32,0h0c-.15.06-.26.17-.25.24Z" transform="translate(0 8.68)"/><path class="cls-13" d="M443.2,524.59a.24.24,0,0,0,.28-.25h0a.39.39,0,0,0-.33-.33l-4.2-.56a.24.24,0,0,0-.29.25h0a.39.39,0,0,0,.34.33Z" transform="translate(0 8.68)"/><path class="cls-13" d="M440.69,525.77a.23.23,0,0,0,.26-.24h0a.34.34,0,0,0-.26-.33l-3.61-.57a.23.23,0,0,0-.26.24h0a.32.32,0,0,0,.26.32Z" transform="translate(0 8.68)"/><path class="cls-13" d="M438.46,527a.23.23,0,0,0,.3-.2h0a.33.33,0,0,0-.21-.36l-3.47-1.07a.23.23,0,0,0-.3.21h0a.33.33,0,0,0,.2.35Z" transform="translate(0 8.68)"/><polygon class="cls-15" points="384.82 532.08 394.13 536.5 401.31 522.17 392.01 517.75 384.82 532.08"/><path class="cls-16" d="M401.31,513.49l-2.49,5a4,4,0,0,0-1.69-1c-2.62-.74-4.91-1.39-6.88.77-1.09,1.19-1.11,3.27-1.26,4.77-.09.74-.16,1.47-.27,2.2l-3.9-1.86L392,509.07Z" transform="translate(0 8.68)"/><path class="cls-19" d="M358.41,522.38a6.54,6.54,0,0,1,.37-1.86c.43-1.73,11.12-1.34,17.68-.88,1.27.08,4-.15,5-.81s.47-.75,1-.31c1.51,1.37,3.18.76,4.59,1.19l-3.38,12.92c-8.49-2.55-21.46-6.59-24.21-7.44-1.71-.53-1.49-1.35-1.24-2.39A2.26,2.26,0,0,1,358.41,522.38Z" transform="translate(0 8.68)"/><path class="cls-17" d="M358.41,522.38a6.54,6.54,0,0,1,.37-1.86c.43-1.73,11.12-1.34,17.68-.88,1.27.08,4-.15,5-.81s.47-.75,1-.31c1.51,1.37,2.88.67,4.59,1.19l-3.38,12.92c-8.49-2.55-21.46-6.59-24.21-7.44-1.71-.53-1.49-1.35-1.24-2.39A2.26,2.26,0,0,1,358.41,522.38Z" transform="translate(0 8.68)"/><path class="cls-13" d="M384.28,530.24l-.62,2.38c-8.48-2.54-21.45-6.58-24.2-7.43-1.71-.53-1.49-1.35-1.24-2.39a2.48,2.48,0,0,1,.17-.37Z" transform="translate(0 8.68)"/><path class="cls-20" d="M384.26,530.36l-.59,2.27c-8.49-2.55-21.46-6.59-24.21-7.44-1.71-.53-1.49-1.35-1.24-2.39a1.34,1.34,0,0,1,.13-.27Z" transform="translate(0 8.68)"/><path class="cls-13" d="M366.25,525.22c-.25,1-.48,1.87,1,2.31,3.45,1.08,25.76,8.19,26.94,8.25a1.9,1.9,0,0,0,1.9-1.43h0a1.88,1.88,0,0,0-1-2.32l-26.95-8.24c-.8-.25-1.65.39-1.91,1.43Z" transform="translate(0 8.68)"/><path class="cls-19" d="M396.27,533.6c-.12.68-9.31-2.35-29.54-8.59-.47-.15-.38-.15.1-2.07.42-1.73,9.64-1.75,15.27-1.56a8.91,8.91,0,0,0,4.37-1c.9-.72.44-.77.85-.35,7.84,8.1,8.9,1.12,10.18,2.35C399,523.88,396.47,532.42,396.27,533.6Z" transform="translate(0 8.68)"/><path class="cls-13" d="M384.73,524.38c0,.13.15.21.33.18h0a.36.36,0,0,0,.27-.33l-.32-3.49c0-.14-.15-.22-.32-.19h0a.36.36,0,0,0-.28.33Z" transform="translate(0 8.68)"/><path class="cls-13" d="M381.68,523.88c0,.11.14.18.31.16h0c.16,0,.29-.12.29-.23V521c0-.11-.14-.19-.31-.17h0c-.16,0-.29.13-.29.24Z" transform="translate(0 8.68)"/><path class="cls-13" d="M379.12,523.37c0,.06.13.11.29.1h0c.17,0,.31-.07.31-.14l0-1.76c0-.07-.13-.12-.3-.11h0c-.16,0-.29.08-.3.15Z" transform="translate(0 8.68)"/><path class="cls-13" d="M384.64,521a.24.24,0,0,0,.34-.16h0a.4.4,0,0,0-.22-.42l-3.83-1.81a.23.23,0,0,0-.34.15h0a.38.38,0,0,0,.21.42Z" transform="translate(0 8.68)"/><path class="cls-13" d="M381.89,521.34a.21.21,0,0,0,.31-.15h0a.32.32,0,0,0-.14-.39l-3.27-1.65a.23.23,0,0,0-.32.15h0a.33.33,0,0,0,.15.39Z" transform="translate(0 8.68)"/><path class="cls-13" d="M379.39,521.84a.22.22,0,0,0,.34-.1h0a.32.32,0,0,0-.09-.4l-3-2.08a.23.23,0,0,0-.35.1h0a.32.32,0,0,0,.09.4Z" transform="translate(0 8.68)"/><path class="cls-13" d="M420.07,457.17c6.34-15.8,29.3-28.31,43-28.94,9.74-.45,25.21-42.84,18.13-42.91l-21.59,7.53c-13.84,1.15-56.84,23.75-64.5,64.32l-7.21,57.41,12.05,4Z" transform="translate(0 8.68)"/><path class="cls-13" d="M442.87,457.17l.45,61.46h13.17l8.84-61.46c2.52-17.54,12.19-27.58,19-31.94,0,0-10.1-12.76-17.18-12.83l1.18,1C454.53,414.58,445.74,417.11,442.87,457.17Z" transform="translate(0 8.68)"/><polygon class="cls-17" points="502.11 319.96 503 333.69 507.57 327.44 504.65 317.53 502.11 319.96"/><path class="cls-17" d="M484.47,377.35c2.81-2,4.1-2.41,7.18-5.47,5.41-5.37,11.18-11.94,13.67-19.26,1.31-3.86.7-8,4.09-11,3-2.59,7-1.84,10.06-4.27,2.45-2,5.24-4.51,6.44-7.49.78-1.93.77-4.3,1.21-6.32a12.71,12.71,0,0,0,.59-3,26.31,26.31,0,0,0-2.79-1.17s-27.73,20.19-40.94,56.5A6.55,6.55,0,0,1,484.47,377.35Z" transform="translate(0 8.68)"/><path class="cls-17" d="M494,314.18c-1.62,2.4-3.09,4.56-3.76,7.42s-.2,5,.28,7.8c.63,3.71-.95,6.66-2,10.05-1.23,3.86-2.31,7.69-3.92,11.42-1.39,3.21-3.45,6.31-4.2,9.75-.93,4.29.1,8.75,1.56,12.89a6.28,6.28,0,0,1,2,2.39c6.48-21.17,19.93-65.09,20.05-65.22-1.39-.47.11-.32-1.57-.53,0,0-1.14-.29-2.93-.62C497.12,310.86,495.67,311.69,494,314.18Z" transform="translate(0 8.68)"/><polygon class="cls-4" points="502.11 319.96 503.42 332.44 507.83 327.14 505.07 316.29 502.11 319.96"/><polygon class="cls-17" points="526.03 328.05 508.37 336.74 507.94 328.1 524.72 321.69 526.03 328.05"/><polygon class="cls-4" points="526.03 328.05 508.9 335.18 507.59 326.64 525.93 320.72 526.03 328.05"/><path class="cls-15" d="M514.06,272.25l-1.69-2.17c-1.4-1.79-3.44-1.54-4.76.46-2.26,3.42.59,5.25-1,8l4.92,1.83Z" transform="translate(0 8.68)"/><path class="cls-15" d="M535.06,292.91l3,.83c2.51.7,3.26,2.54,1.9,4.29-2.33,3-5.36,1-7.91,3.35l-4-3.84Z" transform="translate(0 8.68)"/><path class="cls-13" d="M553.75,283.26l33.7,32.3c5.66,5.24-5.4,18.22-13.37,10.12-4.4-3-28.16-40.95-27.5-40.87A10.5,10.5,0,0,0,553.75,283.26Z" transform="translate(0 8.68)"/><path class="cls-15" d="M540.7,271.55c-3,1.83-3.18,7-.39,11.57s7.46,6.78,10.47,4.95,3.17-7,.4-11.57S543.71,269.72,540.7,271.55Z" transform="translate(0 8.68)"/><path class="cls-15" d="M502.57,287.85c-1.05,5.81-.62,15.09,2.44,17.69,3.44,2.9,18.13,3.5,21.73,1.08,9.94-6.68,26.66-30.11,8.54-40.85-4.83-2.86-11.75-10.21-19.3-2.58C511.18,268.05,503.76,281.29,502.57,287.85Z" transform="translate(0 8.68)"/><path class="cls-16" d="M502.57,287.85c1.19-6.56,8.61-19.8,13.41-24.66,7.55-7.63,14.47-.28,19.3,2.58a18.47,18.47,0,0,1,7,6.84,4,4,0,0,0-.69,0,40,40,0,0,0-12.44,3.89c-.31.16-.48-1.18-.69-1a22.9,22.9,0,0,1-6.82-.53c-1.83-.67-7.32-6.13-9.56-3.69-4.58,5-7.32,10.16-8.37,15.17-2.7,12.82,1.3,19,1.3,19C502,302.94,501.52,293.66,502.57,287.85Z" transform="translate(0 8.68)"/><path class="cls-13" d="M535.56,258.85c-.49-2.32-3,7.49-5.43,2.8-1.08-2.1-5.8-3.17-10.11-.35l14.86,13.64c1.08.59,2.16,1.18,3.22,1.81a6.39,6.39,0,0,1,2.36,7.81c1.84,0,3.68.05,5.57-.07C553.57,268.76,537.24,266.8,535.56,258.85Z" transform="translate(0 8.68)"/><path class="cls-13" d="M525,253.8c-1.62,1.6-1.33,5.09.65,7.78s7.93,2.67,9.56,1.06-2.3-1.58-3.6-5.57C530.56,253.76,526.66,252.19,525,253.8Z" transform="translate(0 8.68)"/><path class="cls-13" d="M517,270c-4-2.53-9.26,5.63-9.26,5.63-1.08-.8,2.05-7.24,6.13-11.49C516.46,261.42,520,271.78,517,270Z" transform="translate(0 8.68)"/><path class="cls-21" d="M517,270c-4-2.53-9.26,5.63-9.26,5.63-1.08-.8,2.05-7.24,6.13-11.49C516.46,261.42,520,271.78,517,270Z" transform="translate(0 8.68)"/><path class="cls-13" d="M516,260.39c-2,2.57-2.89,6.14.66,10.36,6.36,7.57,11.2,3.17,20.94,12,.83.76-2.15,2.21-.52,6.52s-2.16,9.23-2.16,9.23c1.62.89,8.72-10.79,9.61-11.93,4.28-5.5,1.37-15.82-6.51-23S520.32,254.89,516,260.39Z" transform="translate(0 8.68)"/><path class="cls-21" d="M536.85,295s6.27-9,7.55-11.81c1.8-4,3-6.85.52-10.85-1.2-1.94-6.08-5.28-7.87-6.61-2.27-1.67-3-3.65-3.95-6.21a9.71,9.71,0,0,0,.92.83c.77-1.33,1.33-2.5,1.54-1.52,1.68,7.95,18,9.91,10.47,25.64l-.3,0a8.5,8.5,0,0,1-1.17,2.05c-.89,1.14-8,12.82-9.61,11.93A33.21,33.21,0,0,0,536.85,295Z" transform="translate(0 8.68)"/><path class="cls-15" d="M344.29,396.84c0,3.51,4.33,6.36,9.67,6.36s9.68-2.85,9.68-6.36-4.33-6.37-9.68-6.37S344.29,393.32,344.29,396.84Z" transform="translate(0 8.68)"/><path class="cls-22" d="M529.59,533.58c6.58.3,17.45,3.89-12,15.33-8.09,3.14-118.67.27-128.13-.07-65.13-2.3-127.65.52-127.65-4.06,0-4,40.51-18.55,87.77-13.22C368.74,533.73,513.92,532.86,529.59,533.58Z" transform="translate(0 8.68)"/><path class="cls-15" d="M423.51,436.1c2.49-6.4-7-10-12.21-6a45.66,45.66,0,0,0-6.34,6Z" transform="translate(0 8.68)"/><path class="cls-16" d="M421.44,436.1h2.08a4.89,4.89,0,0,0-1.49-5.85C422.34,432.33,422.75,434,421.44,436.1Z" transform="translate(0 8.68)"/><path class="cls-23" d="M381.85,424.69H275.58a6.94,6.94,0,1,0,0,13.87H381.85Z" transform="translate(0 8.68)"/><path class="cls-4" d="M499.9,421.16l4.66.93s0-8.63,2.34-11.79l-4.66-.93C498.55,413.69,499.9,421.16,499.9,421.16Z" transform="translate(0 8.68)"/><polygon class="cls-4" points="457.99 435.21 524.56 435.21 524.56 404.59 457.45 404.59 457.61 405.69 457.99 405.76 457.99 435.21"/><polygon class="cls-24" points="457.99 406.6 524.56 406.6 524.56 406.6 457.99 405.82 457.99 406.6"/><polygon class="cls-25" points="457.45 408.68 524.56 407.12 524.56 406.86 457.45 407.9 457.45 408.68"/><polygon class="cls-24" points="457.99 410.87 524.56 409.32 524.56 409.06 457.99 410.1 457.99 410.87"/><polygon class="cls-25" points="456.7 412.23 524.56 411.55 524.56 410.54 456.92 411.9 456.7 412.23"/><polygon class="cls-24" points="457.99 414.01 524.56 414.01 524.56 414.01 457.99 413.23 457.99 414.01"/><polygon class="cls-25" points="457.45 416.23 524.56 414.53 524.56 414.27 457.34 415.38 457.45 416.23"/><polygon class="cls-24" points="457.99 418.28 524.56 416.73 524.56 416.47 457.99 417.51 457.99 418.28"/><polygon class="cls-24" points="457.99 419.63 524.56 418.96 524.56 417.96 458.2 419.31 457.99 419.63"/><polygon class="cls-25" points="456.41 420.56 524.56 420.43 524.56 420.43 456.41 419.47 456.41 420.56"/><polygon class="cls-24" points="457.99 422.51 524.56 420.96 524.56 420.7 457.99 421.74 457.99 422.51"/><polygon class="cls-24" points="457.99 424.71 524.56 423.16 524.56 422.9 457.99 423.94 457.99 424.71"/><polygon class="cls-24" points="457.99 426.06 524.56 425.39 524.56 424.38 458.2 425.74 457.99 426.06"/><polygon class="cls-25" points="457.45 427.85 524.56 427.85 524.56 427.85 457.45 427.07 457.45 427.85"/><polygon class="cls-24" points="457.99 429.92 524.56 428.37 524.56 428.11 457.99 429.15 457.99 429.92"/><polygon class="cls-25" points="456.7 432.64 524.56 430.57 524.56 430.31 456.59 431.21 456.7 432.64"/><polygon class="cls-24" points="457.99 433.47 524.56 432.8 524.56 431.8 458.2 433.15 457.99 433.47"/><rect class="cls-24" x="515.86" y="404.59" width="8.7" height="30.62"/><polygon class="cls-24" points="516.94 410.69 512.57 406.56 518.18 404.59 516.94 410.69"/><polygon class="cls-4" points="516.39 409.33 512.11 406.47 513.44 404.59 518.3 404.59 516.39 409.33"/><polygon class="cls-24" points="459.33 428.56 457.99 424.7 462.38 424.65 459.33 428.56"/><polygon class="cls-4" points="457.34 428.83 457.99 424.71 462.51 424.6 457.34 428.83"/><polygon class="cls-24" points="463.3 418.55 458.38 412.8 466.46 412.71 463.3 418.55"/><polygon class="cls-4" points="462.31 418.18 457.99 412.26 466.78 412.16 462.31 418.18"/><polygon class="cls-4" points="517.93 410.73 514.46 410.75 514.2 409.56 517.93 409.48 517.93 410.73"/><polygon class="cls-4" points="519.11 424.59 514.46 424.59 514.2 423.4 519.35 423.3 519.11 424.59"/><polygon class="cls-4" points="517.17 430.43 514.35 430.43 514.2 428.63 517.32 428.49 517.17 430.43"/><polygon class="cls-4" points="516.62 435.21 513.8 435.21 513.64 433.08 516.77 432.9 516.62 435.21"/><polygon class="cls-4" points="517.52 420.27 514.46 420.3 514.2 419.11 517.11 419.02 517.52 420.27"/><polygon class="cls-4" points="516.21 416.6 514.44 416.63 514.2 414.79 516.64 414.71 516.21 416.6"/><polygon class="cls-4" points="458.43 435.19 456.65 435.21 456.41 433.38 458.71 433.47 458.43 435.19"/><polygon class="cls-4" points="458.25 410.09 456.38 410.1 456.18 408.58 458.49 408.67 458.25 410.09"/><polygon class="cls-26" points="506.22 417.62 499.51 417.62 499.37 414.84 504.78 413.76 506.22 417.62"/><polygon class="cls-26" points="490.96 429.63 484.88 429.63 484.42 426.06 489.81 425.14 490.96 429.63"/><rect class="cls-27" x="498.7" y="413.76" width="6.08" height="3.35"/><rect class="cls-28" x="483.73" y="425.14" width="6.08" height="3.35"/><path class="cls-23" d="M533.83,424.69H392.51v13.87H533.83a6.94,6.94,0,1,0,0-13.87Z" transform="translate(0 8.68)"/><path class="cls-28" d="M245.57,545.21l.87-100.92a5.72,5.72,0,1,0-11.44,0l1.17,100.92Z" transform="translate(0 8.68)"/><path class="cls-23" d="M244,452.19c.12,1.89,0,76.45-.21,93h1.77l.87-100.92a5.72,5.72,0,1,0-11.44,0l.13,4.31C239.14,450.4,243.7,447.51,244,452.19Z" transform="translate(0 8.68)"/><path class="cls-23" d="M263.09,536.07,264.31,429a5.73,5.73,0,0,0-11.45,0l1.62,107.1Z" transform="translate(0 8.68)"/><path class="cls-28" d="M504.81,545.21l.88-100.92a5.73,5.73,0,1,0-11.45,0l1.17,100.92Z" transform="translate(0 8.68)"/><path class="cls-23" d="M503.25,452.19c.13,1.89,0,76.45-.21,93h1.77l.88-100.92a5.73,5.73,0,1,0-11.45,0l.13,4.31C498.39,450.4,502.94,447.51,503.25,452.19Z" transform="translate(0 8.68)"/><polygon class="cls-23" points="513.8 438.09 515.41 544.75 524.02 544.75 525.23 438.09 513.8 438.09"/><path class="cls-23" d="M270.58,438a8.1,8.1,0,0,1-8.1,8.1h-7.79a8.1,8.1,0,0,1-8.1-8.1h0a8.1,8.1,0,0,1,8.1-8.1h7.79a8.1,8.1,0,0,1,8.1,8.1Z" transform="translate(0 8.68)"/><path class="cls-28" d="M252.72,438a8.1,8.1,0,0,1-8.1,8.1h-7.79a8.1,8.1,0,0,1-8.1-8.1h0a8.1,8.1,0,0,1,8.1-8.1h7.79a8.1,8.1,0,0,1,8.1,8.1Z" transform="translate(0 8.68)"/><path class="cls-23" d="M249.42,443.06c1.53-2.6.39-3.06-2.49-3.06H229a8.48,8.48,0,0,1-.24-2,8.1,8.1,0,0,1,8.1-8.1h7.79a8.1,8.1,0,0,1,0,16.2H242S247.59,446.15,249.42,443.06Z" transform="translate(0 8.68)"/><path class="cls-23" d="M512.74,438a8.1,8.1,0,0,1-8.1,8.1h-7.79a8.1,8.1,0,0,1-8.1-8.1h0a8.1,8.1,0,0,1,8.1-8.1h7.79a8.1,8.1,0,0,1,8.1,8.1Z" transform="translate(0 8.68)"/><path class="cls-28" d="M510.82,438a8.11,8.11,0,0,1-8.11,8.1h-7.78a8.11,8.11,0,0,1-8.11-8.1h0a8.11,8.11,0,0,1,8.11-8.1h7.78a8.11,8.11,0,0,1,8.11,8.1Z" transform="translate(0 8.68)"/><path class="cls-23" d="M507.52,443.06c1.53-2.6.39-3.06-2.49-3.06h-18a8.49,8.49,0,0,1-.25-2,8.11,8.11,0,0,1,8.11-8.1h7.78a8.1,8.1,0,1,1,0,16.2H500.1S505.69,446.15,507.52,443.06Z" transform="translate(0 8.68)"/><path class="cls-29" d="M250.37,379.5c0,2.77-.68,6,1.18,7.15h4.57c3.18,0,5.76-3.2,5.76-7.15s-2.58-7.15-5.76-7.15h-4.4C249.93,373.56,250.37,376.79,250.37,379.5Z" transform="translate(0 8.68)"/><path class="cls-14" d="M256.05,374.55a.81.81,0,0,0,1.09.27.8.8,0,0,0,.05-1.12.81.81,0,0,0-1.09-.27A.8.8,0,0,0,256.05,374.55Z" transform="translate(0 8.68)"/><path class="cls-14" d="M258,374.3a.73.73,0,1,0,1.14-.85.73.73,0,1,0-1.14.85Z" transform="translate(0 8.68)"/><path class="cls-28" d="M257.36,374.47a.78.78,0,0,1-1.08.16h0a.78.78,0,0,1-.16-1.08l20.28-27.36a.76.76,0,0,1,1.08-.16h0a.77.77,0,0,1,.16,1.08Z" transform="translate(0 8.68)"/><path class="cls-28" d="M259.3,374.24a.76.76,0,0,1-1.08.16h0a.78.78,0,0,1-.16-1.08L278.34,346a.78.78,0,0,1,1.08-.16h0a.77.77,0,0,1,.16,1.08Z" transform="translate(0 8.68)"/><path class="cls-14" d="M277.48,346a.76.76,0,0,0-1.08.16l-1.52,2.05c.32.92.73,1.06-.27,2.48-.06.1-14.16,18.72-17.58,23.55-.52.73-.79.32-.75.36a.78.78,0,0,0,1.08-.16l20.28-27.36A.77.77,0,0,0,277.48,346Z" transform="translate(0 8.68)"/><path class="cls-14" d="M279.43,345.8a.78.78,0,0,0-1.08.16L275,350.67c.26.88,1,.4-.49,2.54-.07.1-12.11,16-15.54,20.84-.51.73-.79.32-.74.36a.77.77,0,0,0,1.08-.17l20.28-27.36A.78.78,0,0,0,279.43,345.8Z" transform="translate(0 8.68)"/><path class="cls-28" d="M281.83,348.28a4,4,0,0,1-5.41,1.34h0a3.93,3.93,0,0,1-1.34-5.41l1.22-2a4,4,0,0,1,5.41-1.34h0a4,4,0,0,1,1.34,5.41Z" transform="translate(0 8.68)"/><path class="cls-14" d="M281.71,340.85a3.93,3.93,0,0,0-5.31,1.2c2,2.08,4.49,4.89,2.34,7.61a4.64,4.64,0,0,1-.49.5,3.93,3.93,0,0,0,3.58-1.88l1.22-2A4,4,0,0,0,281.71,340.85Z" transform="translate(0 8.68)"/><path class="cls-28" d="M283.39,350.24c4.74,3.22,12.62-.09,17.59-7.41s5.16-15.86.42-19.09-23.72-11-29.52-1.23S278.65,347,283.39,350.24Z" transform="translate(0 8.68)"/><path class="cls-14" d="M305.21,326.11c-5-3.37-13.6-.25-18.75,7.33-3.83,5.64-4.89,12-3.13,16.27,0,0,2.45,2.56,4,3.13s3.56-.16,5,.51a1,1,0,0,1,.33.24l.64.2a.93.93,0,0,1,.48.32c3.79-1.1,7.78-4.07,10.75-8.44C309.6,338.09,310.18,329.49,305.21,326.11Z" transform="translate(0 8.68)"/><path class="cls-28" d="M286.85,352.79c5.32,4,13.17,0,18.32-7.61s6.71-16.92.33-19.83c-5.47-2.49-13.17,0-18.32,7.61S281.73,348.88,286.85,352.79Z" transform="translate(0 8.68)"/><path class="cls-14" d="M256.18,386.65h-3.24c-.13,0,.09-.08.82-.5h3.89A2.76,2.76,0,0,1,256.18,386.65Z" transform="translate(0 8.68)"/><path class="cls-29" d="M261.34,421.05h3.57l-8.53-34.72h-3.24v0Z" transform="translate(0 8.68)"/><path class="cls-28" d="M259.65,421.05h3.58l-8.54-34.72h-3.24s0,0,0,0Z" transform="translate(0 8.68)"/><polygon class="cls-29" points="259.38 428.57 259.65 429.73 263.23 429.73 262.94 428.57 259.38 428.57"/><path class="cls-29" d="M251.89,388.22a6.88,6.88,0,0,0,3.06-.85l-.26-1h-3.24s0,0,0,0Z" transform="translate(0 8.68)"/><path class="cls-28" d="M246,379.5c0,3.95,2.57,7.15,5.75,7.15s5.76-3.2,5.76-7.15-2.58-7.15-5.76-7.15S246,375.55,246,379.5Z" transform="translate(0 8.68)"/><path class="cls-29" d="M248.68,379.5a2.25,2.25,0,1,0,2.2-2.73A2.5,2.5,0,0,0,248.68,379.5Z" transform="translate(0 8.68)"/><path class="cls-13" d="M249.53,379.5a2.25,2.25,0,1,0,2.19-2.73A2.49,2.49,0,0,0,249.53,379.5Z" transform="translate(0 8.68)"/><path class="cls-1" d="M288.75,353.2c3.93,2.67,11.15-1.1,16.12-8.41s5.82-15.42,1.89-18.09-11.15,1.09-16.12,8.41S284.82,350.52,288.75,353.2Z" transform="translate(0 8.68)"/><g class="cls-30"><path class="cls-11" d="M286.28,337.38a6.52,6.52,0,1,0,6.52-6.52A6.52,6.52,0,0,0,286.28,337.38Z" transform="translate(0 8.68)"/><path class="cls-31" d="M291,341.79c-1-1.79-.36-3.64.54-5.4a16.9,16.9,0,0,1,3.9-5,6.4,6.4,0,0,0-2.6-.54,6.53,6.53,0,1,0,5.11,10.57C296.08,343.13,292.11,343.87,291,341.79Z" transform="translate(0 8.68)"/></g><path class="cls-29" d="M297.6,423.68a2.63,2.63,0,0,1-2.63,2.63H264.12a2.63,2.63,0,0,1-2.63-2.63h0a2.63,2.63,0,0,1,2.63-2.63H295a2.63,2.63,0,0,1,2.63,2.63Z" transform="translate(0 8.68)"/><path class="cls-28" d="M285.82,423.68a2.63,2.63,0,0,1-2.63,2.63H252.34a2.63,2.63,0,0,1-2.63-2.63h0a2.63,2.63,0,0,1,2.63-2.63h30.85a2.63,2.63,0,0,1,2.63,2.63Z" transform="translate(0 8.68)"/><path class="cls-32" d="M272.26,398.16c-.7,5.72,2.33,10.8,6.76,11.35s8.61-3.65,9.31-9.37-2.33-10.8-6.76-11.35S273,392.44,272.26,398.16Z" transform="translate(0 8.68)"/><path class="cls-33" d="M281.57,388.79c-3.82-.47-7.43,2.59-8.81,7.09,1.55-.37,3.68-.87,4.25-2.43a2,2,0,0,1,2.2-1.33,2.25,2.25,0,0,1,.78.14,9.47,9.47,0,0,0,1.3.09h.17a6.75,6.75,0,0,0,1.61-.48,1.93,1.93,0,0,1,2.22,1.17,1.8,1.8,0,0,1,2.18,2c-.21,2.57-.22,5.51-1.36,7.87a7.09,7.09,0,0,1-1.34,1.88,2.65,2.65,0,0,1-1.34,1.14l-.16.05a13.86,13.86,0,0,1-2.45,1.18,2,2,0,0,1-2.17-.43l-.8,0c-1.25.05-2.75.34-3.8-.46a7.12,7.12,0,0,0,5,3.23c4.44.54,8.61-3.65,9.31-9.37S286,389.34,281.57,388.79Z" transform="translate(0 8.68)"/><path class="cls-32" d="M286.09,393.67c-1.06,3.08,0,6.24,2.43,7.06s5.18-1,6.24-4.11,0-6.25-2.43-7.06S287.14,390.58,286.09,393.67Z" transform="translate(0 8.68)"/><path class="cls-33" d="M292.47,389.62a2.15,2.15,0,0,1,1,1.82c.12,2.55.36,5.89-2,7.61a5.59,5.59,0,0,1-4.38.81,3.6,3.6,0,0,0,1.39.87c2.39.82,5.18-1,6.24-4.11S294.76,390.51,292.47,389.62Z" transform="translate(0 8.68)"/><path class="cls-32" d="M289.79,388.51c-.17,2,1,3.8,2.56,3.93s3-1.42,3.18-3.46-1-3.8-2.57-3.93S290,386.47,289.79,388.51Z" transform="translate(0 8.68)"/><path class="cls-33" d="M293,385.05a2.31,2.31,0,0,0-1.13.19,1.67,1.67,0,0,1,.31.44l.2,0a4.56,4.56,0,0,1,.71.24,2,2,0,0,1,1.3,2.44,3.4,3.4,0,0,1-.57,2.44,7.09,7.09,0,0,0-.81,1.1,2.34,2.34,0,0,1-.25.5c1.43-.12,2.65-1.58,2.81-3.46C295.69,386.94,294.55,385.18,293,385.05Z" transform="translate(0 8.68)"/><path class="cls-32" d="M275.12,389.77c-1.47-1.43-3.56-1.66-4.67-.52s-.81,3.22.65,4.65,3.56,1.66,4.67.52S276.59,391.2,275.12,389.77Z" transform="translate(0 8.68)"/><path class="cls-33" d="M275.12,389.77c-1.47-1.43-3.56-1.66-4.67-.52a2.8,2.8,0,0,0-.48,2.88,2.56,2.56,0,0,1,.58.22c-.1,0-.05,0,.13.06l.25,0c.06,0,.43-.21.48-.23l.55-.28c2.12-1.08,3.81,1.92,2.18,3.27a2.44,2.44,0,0,0,1.63-.71C276.88,393.28,276.59,391.2,275.12,389.77Z" transform="translate(0 8.68)"/><path class="cls-34" d="M272.58,389.64a.13.13,0,0,0,.06.17h0a.13.13,0,0,0,.17-.06,5.37,5.37,0,0,0,.34-1.05h0A6,6,0,0,0,272.58,389.64Z" transform="translate(0 8.68)"/><path class="cls-34" d="M273.79,389.72a.12.12,0,0,0-.06.17h0a.12.12,0,0,0,.17.06,5.37,5.37,0,0,0,.92-.6h0A6,6,0,0,0,273.79,389.72Z" transform="translate(0 8.68)"/><path class="cls-34" d="M273,390.86a.12.12,0,0,0-.06.17h0a.13.13,0,0,0,.17.06,6.14,6.14,0,0,0,.93-.6h0A5.82,5.82,0,0,0,273,390.86Z" transform="translate(0 8.68)"/><path class="cls-34" d="M274.22,391.38a.13.13,0,0,0-.06.17h0a.13.13,0,0,0,.17.06,6.14,6.14,0,0,0,.93-.6h0A5.82,5.82,0,0,0,274.22,391.38Z" transform="translate(0 8.68)"/><path class="cls-34" d="M274.58,390.55a.12.12,0,0,0-.06.17h0a.13.13,0,0,0,.17.06,6,6,0,0,0,.92-.6h0A6,6,0,0,0,274.58,390.55Z" transform="translate(0 8.68)"/><path class="cls-34" d="M275.33,391.69a.12.12,0,0,0-.06.17h0a.13.13,0,0,0,.17.06,6,6,0,0,0,.92-.6h0A5.27,5.27,0,0,0,275.33,391.69Z" transform="translate(0 8.68)"/><path class="cls-34" d="M275.33,392.63a.12.12,0,0,0-.06.17h0a.12.12,0,0,0,.17.06,5.37,5.37,0,0,0,.92-.6h0A6,6,0,0,0,275.33,392.63Z" transform="translate(0 8.68)"/><path class="cls-34" d="M275.68,393.45a.12.12,0,0,0-.11.14h0a.12.12,0,0,0,.14.11,5.82,5.82,0,0,0,1.07-.28h0A5.76,5.76,0,0,0,275.68,393.45Z" transform="translate(0 8.68)"/><path class="cls-34" d="M274.94,394.53a.13.13,0,0,0-.07-.16h0a.14.14,0,0,0-.17.08,6.38,6.38,0,0,0-.24,1.07h0A5.32,5.32,0,0,0,274.94,394.53Z" transform="translate(0 8.68)"/><path class="cls-34" d="M274.16,393.76a.13.13,0,0,0,0-.17h0a.13.13,0,0,0-.18,0s-.9.62-.86.68h0A5.72,5.72,0,0,0,274.16,393.76Z" transform="translate(0 8.68)"/><path class="cls-34" d="M274.81,392.56a.13.13,0,0,0,0-.18h0a.12.12,0,0,0-.17,0,6.27,6.27,0,0,0-.86.68h0A5.94,5.94,0,0,0,274.81,392.56Z" transform="translate(0 8.68)"/><path class="cls-34" d="M273.57,392.16a.14.14,0,0,0,0-.18h0a.13.13,0,0,0-.18,0s-.9.62-.86.68h0A5.68,5.68,0,0,0,273.57,392.16Z" transform="translate(0 8.68)"/><path class="cls-34" d="M273.42,393.27a.14.14,0,0,0,0-.18h0a.13.13,0,0,0-.18,0s-.9.63-.86.69h0A5.72,5.72,0,0,0,273.42,393.27Z" transform="translate(0 8.68)"/><path class="cls-34" d="M272.43,392a.13.13,0,0,0,.05-.17h0a.13.13,0,0,0-.18,0s-.9.62-.86.68h0A6,6,0,0,0,272.43,392Z" transform="translate(0 8.68)"/><path class="cls-34" d="M272.34,391a.13.13,0,0,0,.05-.17h0a.13.13,0,0,0-.18,0s-.9.62-.86.68h0A6,6,0,0,0,272.34,391Z" transform="translate(0 8.68)"/><path class="cls-34" d="M271.92,390.24a.13.13,0,0,0,.09-.16h0a.11.11,0,0,0-.15-.09,5.55,5.55,0,0,0-1,.38h0A5.7,5.7,0,0,0,271.92,390.24Z" transform="translate(0 8.68)"/><path class="cls-34" d="M273.68,395.21a.14.14,0,0,0-.05-.18h0a.13.13,0,0,0-.17.05,6.05,6.05,0,0,0-.44,1h0A5.62,5.62,0,0,0,273.68,395.21Z" transform="translate(0 8.68)"/><path class="cls-34" d="M272.62,394.92a.11.11,0,0,0,.07-.16h0a.11.11,0,0,0-.16-.07,6,6,0,0,0-1,.51h0A5.52,5.52,0,0,0,272.62,394.92Z" transform="translate(0 8.68)"/><path class="cls-34" d="M272,393.5a.11.11,0,0,0,.07-.16h0a.11.11,0,0,0-.16-.07,6,6,0,0,0-1,.51h0A5.52,5.52,0,0,0,272,393.5Z" transform="translate(0 8.68)"/><path class="cls-34" d="M271.56,394.3a.14.14,0,0,0,.08-.17h0a.13.13,0,0,0-.17-.07,5.34,5.34,0,0,0-1,.52h0A6.36,6.36,0,0,0,271.56,394.3Z" transform="translate(0 8.68)"/><path class="cls-34" d="M270.91,393.1a.13.13,0,0,0,.08-.16h0a.14.14,0,0,0-.17-.08,5.34,5.34,0,0,0-1,.52h0A6.36,6.36,0,0,0,270.91,393.1Z" transform="translate(0 8.68)"/><path class="cls-34" d="M271,392.16a.14.14,0,0,0,.08-.17h0a.14.14,0,0,0-.17-.07,5.69,5.69,0,0,0-1,.52h0A6.36,6.36,0,0,0,271,392.16Z" transform="translate(0 8.68)"/><path class="cls-34" d="M270.72,391.32a.14.14,0,0,0,.12-.14h0a.14.14,0,0,0-.14-.12,5.83,5.83,0,0,0-1.08.19h0A5.81,5.81,0,0,0,270.72,391.32Z" transform="translate(0 8.68)"/><path class="cls-32" d="M273.5,383.63c-1.71-2.77-4.85-3.95-7-2.62s-2.51,4.65-.8,7.43,4.84,3.95,7,2.62S275.21,386.41,273.5,383.63Z" transform="translate(0 8.68)"/><path class="cls-33" d="M273.5,383.63c-1.71-2.77-4.85-3.95-7-2.62a3.74,3.74,0,0,0-1.21,1.23,2.07,2.07,0,0,1,1,.1,1.06,1.06,0,0,1,.42-.15,5.78,5.78,0,0,1,.9-.35,3.68,3.68,0,0,1,1.32-.2,4.25,4.25,0,0,1,2.36.93,8.52,8.52,0,0,1,2,2.91,4.76,4.76,0,0,1,.84,2.55,6.57,6.57,0,0,1-1.15,2.87C274.87,389.48,275.14,386.3,273.5,383.63Z" transform="translate(0 8.68)"/><path class="cls-28" d="M268.47,405.08l1.43,14c.48,3.34,2.57,5.73,5.73,5.73H285c3.16,0,5.39-1.95,5.73-5.73l1.43-14Z" transform="translate(0 8.68)"/><path class="cls-24" d="M268.47,405.08l0,.48c2.84-.05,14.9.35,17.32.58,3.39.33,2.67,6.07,2.5,7.59-.36,3.26-.28,9.08-4.9,9.15-2.68,0-10.91.6-12.5-.76a5.31,5.31,0,0,0,4.69,2.7H285c3.16,0,5.39-1.95,5.73-5.73l1.43-14Z" transform="translate(0 8.68)"/><path class="cls-28" d="M271.36,423.48a1.24,1.24,0,0,0,1.06,1.34h15.75a1.24,1.24,0,0,0,1.06-1.34Z" transform="translate(0 8.68)"/><path class="cls-28" d="M292.66,404.71a.5.5,0,0,1-.5.5H268.44a.5.5,0,0,1-.51-.5h0a.51.51,0,0,1,.51-.5h23.72a.51.51,0,0,1,.5.5Z" transform="translate(0 8.68)"/><path class="cls-24" d="M292.16,404.21h-.06a1.62,1.62,0,0,1-1.44.8h-22a1.6,1.6,0,0,1-.65-.13.5.5,0,0,0,.47.33h23.72a.5.5,0,0,0,.5-.5A.51.51,0,0,0,292.16,404.21Z" transform="translate(0 8.68)"/><path class="cls-32" d="M277.5,383.14c-1.36,3.46-.28,7.12,2.41,8.17s6-.91,7.31-4.37.28-7.12-2.41-8.17S278.85,379.67,277.5,383.14Z" transform="translate(0 8.68)"/><path class="cls-33" d="M284.81,378.77a5.05,5.05,0,0,0-5.19,1.26,1.64,1.64,0,0,1,.51.44c.47.68,1.29,1.59,2.19,1.61,1.19,0,2-.13,2.91.9,1.68,2-.85,5-2.55,6.08a4.43,4.43,0,0,1-5.42-.73,4.65,4.65,0,0,0,2.65,3c2.68,1.05,6-.91,7.31-4.37S287.5,379.82,284.81,378.77Z" transform="translate(0 8.68)"/><path class="cls-32" d="M279,376.82c.35,2.4,2.14,4.12,4,3.85s3.09-2.43,2.74-4.83-2.14-4.13-4-3.86S278.64,374.42,279,376.82Z" transform="translate(0 8.68)"/><path class="cls-33" d="M285.73,375.84c-.35-2.4-2.14-4.13-4-3.86a2.73,2.73,0,0,0-1.3.57,2.35,2.35,0,0,1,.71.35l.11,0s.15,0,0,0h0l.14.05c.09,0,.58.11.08,0l.29.05a4.36,4.36,0,0,1,1.92.66,3.76,3.76,0,0,1,1,4.21,2.91,2.91,0,0,1-3.87,1.77,5.56,5.56,0,0,1-.89-.51,3.26,3.26,0,0,0,3.06,1.49C284.85,380.4,286.08,378.24,285.73,375.84Z" transform="translate(0 8.68)"/><path class="cls-28" d="M291.36,383.91v0h0a1.56,1.56,0,0,0,3.11,0h0s0,0,0,0l-.36.24-.37-.38-.24.55-.64-.38-.22.25-.46-.45-.43.33Z" transform="translate(0 8.68)"/><path class="cls-28" d="M284.08,370.39v.06h0a2.24,2.24,0,0,1-4.45,0h0s0,0,0-.06l.51.31.54-.49.34.72.92-.5.32.33.65-.58.62.42Z" transform="translate(0 8.68)"/><path class="cls-28" d="M267.68,379.5a.05.05,0,0,0,0,0h0a1.73,1.73,0,0,1-3.07,1.56h0l0-.05.46,0,.2-.53.48.38.47-.67.33.11.25-.63.57.08Z" transform="translate(0 8.68)"/><path class="cls-34" d="M268.57,381.94a.19.19,0,0,0,.09.26h0a.2.2,0,0,0,.27-.09,9.23,9.23,0,0,0,.53-1.64h0A9.59,9.59,0,0,0,268.57,381.94Z" transform="translate(0 8.68)"/><path class="cls-34" d="M270.45,382.06a.2.2,0,0,0-.09.27h0a.2.2,0,0,0,.27.09,9.65,9.65,0,0,0,1.45-.93h0A9,9,0,0,0,270.45,382.06Z" transform="translate(0 8.68)"/><path class="cls-34" d="M269.25,383.85a.19.19,0,0,0-.09.26h0a.21.21,0,0,0,.27.1,9,9,0,0,0,1.45-.94h0A9,9,0,0,0,269.25,383.85Z" transform="translate(0 8.68)"/><path class="cls-34" d="M271.13,384.66a.21.21,0,0,0-.09.27h0a.2.2,0,0,0,.27.09,9,9,0,0,0,1.45-.94h0A9,9,0,0,0,271.13,384.66Z" transform="translate(0 8.68)"/><path class="cls-34" d="M271.69,383.36a.2.2,0,0,0-.09.27h0a.2.2,0,0,0,.27.09,9.44,9.44,0,0,0,1.45-.94h0A9,9,0,0,0,271.69,383.36Z" transform="translate(0 8.68)"/><path class="cls-34" d="M272.87,385.14a.2.2,0,0,0-.09.27h0a.2.2,0,0,0,.27.09,8.9,8.9,0,0,0,1.44-.94h0A10.07,10.07,0,0,0,272.87,385.14Z" transform="translate(0 8.68)"/><path class="cls-34" d="M272.87,386.63a.19.19,0,0,0-.09.26h0a.2.2,0,0,0,.27.09,9.55,9.55,0,0,0,1.44-.93h0A9.19,9.19,0,0,0,272.87,386.63Z" transform="translate(0 8.68)"/><path class="cls-34" d="M273.42,387.9a.2.2,0,0,0-.17.23h0a.2.2,0,0,0,.22.17,8.94,8.94,0,0,0,1.67-.44h0A9,9,0,0,0,273.42,387.9Z" transform="translate(0 8.68)"/><path class="cls-34" d="M272.27,389.61a.2.2,0,0,0-.12-.26h0a.2.2,0,0,0-.26.12,8.62,8.62,0,0,0-.37,1.69h0A9.61,9.61,0,0,0,272.27,389.61Z" transform="translate(0 8.68)"/><path class="cls-34" d="M271,388.39a.19.19,0,0,0,.06-.27h0a.2.2,0,0,0-.27-.06s-1.42,1-1.36,1.07h0A9.41,9.41,0,0,0,271,388.39Z" transform="translate(0 8.68)"/><path class="cls-34" d="M272.06,386.51a.21.21,0,0,0,.07-.28h0a.21.21,0,0,0-.28-.06,9.2,9.2,0,0,0-1.35,1.07h0A9.27,9.27,0,0,0,272.06,386.51Z" transform="translate(0 8.68)"/><path class="cls-34" d="M270.11,385.88a.21.21,0,0,0,.07-.28h0a.21.21,0,0,0-.28-.06,9.2,9.2,0,0,0-1.35,1.07h0A9.27,9.27,0,0,0,270.11,385.88Z" transform="translate(0 8.68)"/><path class="cls-34" d="M269.87,387.62a.19.19,0,0,0,.07-.27h0a.2.2,0,0,0-.28-.07,9.76,9.76,0,0,0-1.35,1.07h0A8.55,8.55,0,0,0,269.87,387.62Z" transform="translate(0 8.68)"/><path class="cls-34" d="M268.34,385.56a.2.2,0,0,0,.06-.27h0a.19.19,0,0,0-.27-.07,9.84,9.84,0,0,0-1.36,1.07h0A8.64,8.64,0,0,0,268.34,385.56Z" transform="translate(0 8.68)"/><path class="cls-34" d="M268.2,384.09a.21.21,0,0,0,.06-.28h0a.21.21,0,0,0-.28-.06,9.06,9.06,0,0,0-1.35,1.07h0A9.37,9.37,0,0,0,268.2,384.09Z" transform="translate(0 8.68)"/><path class="cls-34" d="M267.53,382.87a.2.2,0,0,0,.15-.24h0a.21.21,0,0,0-.24-.15,8.78,8.78,0,0,0-1.62.6h0A9.75,9.75,0,0,0,267.53,382.87Z" transform="translate(0 8.68)"/><path class="cls-34" d="M270.28,390.66a.2.2,0,0,0-.07-.28h0a.2.2,0,0,0-.27.08,9.65,9.65,0,0,0-.68,1.58h0A9.11,9.11,0,0,0,270.28,390.66Z" transform="translate(0 8.68)"/><path class="cls-34" d="M268.63,390.22a.2.2,0,0,0,.11-.26h0a.2.2,0,0,0-.25-.12,9.35,9.35,0,0,0-1.53.81h0A8.53,8.53,0,0,0,268.63,390.22Z" transform="translate(0 8.68)"/><path class="cls-34" d="M267.64,388a.2.2,0,0,0,.11-.26h0a.19.19,0,0,0-.25-.11,8.64,8.64,0,0,0-1.53.81h0A9.32,9.32,0,0,0,267.64,388Z" transform="translate(0 8.68)"/><path class="cls-34" d="M267,389.23a.2.2,0,0,0,.12-.25h0a.2.2,0,0,0-.26-.12,9.35,9.35,0,0,0-1.53.81h0A9.32,9.32,0,0,0,267,389.23Z" transform="translate(0 8.68)"/><path class="cls-34" d="M266,387.36a.21.21,0,0,0,.12-.26h0a.21.21,0,0,0-.26-.12,9.35,9.35,0,0,0-1.53.81h0A8.53,8.53,0,0,0,266,387.36Z" transform="translate(0 8.68)"/><path class="cls-34" d="M266.08,385.88a.21.21,0,0,0,.12-.26h0a.21.21,0,0,0-.26-.11,8.64,8.64,0,0,0-1.53.81h0A9.32,9.32,0,0,0,266.08,385.88Z" transform="translate(0 8.68)"/><path class="cls-34" d="M265.65,384.56a.2.2,0,0,0,.19-.21h0a.21.21,0,0,0-.21-.19,9,9,0,0,0-1.7.29h0A9,9,0,0,0,265.65,384.56Z" transform="translate(0 8.68)"/><path class="cls-34" d="M281.53,378.94a.14.14,0,0,0,.05-.19h0a.14.14,0,0,0-.19,0s-1,.67-.93.74h0A6.57,6.57,0,0,0,281.53,378.94Z" transform="translate(0 8.68)"/><path class="cls-34" d="M280.5,378.16a.14.14,0,0,0,.15-.12h0a.13.13,0,0,0-.12-.15,6.64,6.64,0,0,0-1.18,0h0A6.65,6.65,0,0,0,280.5,378.16Z" transform="translate(0 8.68)"/><path class="cls-34" d="M281.86,377.59a.14.14,0,0,0,.15-.12h0a.14.14,0,0,0-.12-.15,6.64,6.64,0,0,0-1.18,0h0A5.84,5.84,0,0,0,281.86,377.59Z" transform="translate(0 8.68)"/><path class="cls-34" d="M281.08,376.42a.15.15,0,0,0,.16-.12h0a.15.15,0,0,0-.12-.16,5.92,5.92,0,0,0-1.19,0h0A6.88,6.88,0,0,0,281.08,376.42Z" transform="translate(0 8.68)"/><path class="cls-34" d="M280.28,377a.13.13,0,0,0,.15-.12h0a.13.13,0,0,0-.12-.15,6.64,6.64,0,0,0-1.18,0h0A5.84,5.84,0,0,0,280.28,377Z" transform="translate(0 8.68)"/><path class="cls-34" d="M280.27,375.49a.14.14,0,0,0,.15-.12h0a.14.14,0,0,0-.12-.16,5.82,5.82,0,0,0-1.18,0h0A6.65,6.65,0,0,0,280.27,375.49Z" transform="translate(0 8.68)"/><path class="cls-34" d="M280.83,374.64a.14.14,0,0,0,.15-.12h0a.13.13,0,0,0-.12-.15,5.81,5.81,0,0,0-1.18,0h0A6.65,6.65,0,0,0,280.83,374.64Z" transform="translate(0 8.68)"/><path class="cls-34" d="M281,373.7a.16.16,0,0,0,.19-.06h0a.15.15,0,0,0-.07-.19,6.13,6.13,0,0,0-1.12-.37h0A6.92,6.92,0,0,0,281,373.7Z" transform="translate(0 8.68)"/><path class="cls-34" d="M282.29,373.16a.13.13,0,0,0,0,.19h0a.13.13,0,0,0,.19,0,6.57,6.57,0,0,0,.85-.82h0A6.12,6.12,0,0,0,282.29,373.16Z" transform="translate(0 8.68)"/><path class="cls-34" d="M282.54,374.31a.15.15,0,0,0-.14.14h0a.15.15,0,0,0,.14.14,5.79,5.79,0,0,0,1.17-.11h0A6.6,6.6,0,0,0,282.54,374.31Z" transform="translate(0 8.68)"/><path class="cls-34" d="M281.25,375a.13.13,0,0,0-.14.13h0a.12.12,0,0,0,.13.14,6.6,6.6,0,0,0,1.17-.1h0A5.7,5.7,0,0,0,281.25,375Z" transform="translate(0 8.68)"/><path class="cls-34" d="M282.13,376.1a.14.14,0,0,0-.14.14h0a.13.13,0,0,0,.13.14,6,6,0,0,0,1.18-.11h0A6.74,6.74,0,0,0,282.13,376.1Z" transform="translate(0 8.68)"/><path class="cls-34" d="M282.92,375.19a.14.14,0,0,0-.14.14h0c0,.07.06.13.13.14a6,6,0,0,0,1.18-.11h0A6.74,6.74,0,0,0,282.92,375.19Z" transform="translate(0 8.68)"/><path class="cls-34" d="M283,377a.15.15,0,0,0-.14.14h0a.15.15,0,0,0,.14.14,6.62,6.62,0,0,0,1.17-.11h0A5.8,5.8,0,0,0,283,377Z" transform="translate(0 8.68)"/><path class="cls-34" d="M282.55,377.85a.14.14,0,0,0-.14.13h0a.14.14,0,0,0,.14.14,6.6,6.6,0,0,0,1.17-.1h0A5.9,5.9,0,0,0,282.55,377.85Z" transform="translate(0 8.68)"/><path class="cls-34" d="M282.48,378.8a.14.14,0,0,0-.18.08h0a.13.13,0,0,0,.08.17,5.66,5.66,0,0,0,1.15.27h0A6,6,0,0,0,282.48,378.8Z" transform="translate(0 8.68)"/><path class="cls-34" d="M283.82,373.3a.16.16,0,0,0-.06.19h0a.16.16,0,0,0,.19.06,6.23,6.23,0,0,0,1-.66h0A6.15,6.15,0,0,0,283.82,373.3Z" transform="translate(0 8.68)"/><path class="cls-34" d="M284.61,374.17a.16.16,0,0,0-.17.11h0a.14.14,0,0,0,.11.16,6.56,6.56,0,0,0,1.18.11h0A6.72,6.72,0,0,0,284.61,374.17Z" transform="translate(0 8.68)"/><path class="cls-34" d="M284.34,375.82a.15.15,0,0,0-.17.11h0a.14.14,0,0,0,.11.16,6.56,6.56,0,0,0,1.18.11h0A5.92,5.92,0,0,0,284.34,375.82Z" transform="translate(0 8.68)"/><path class="cls-34" d="M285.19,375.36a.14.14,0,0,0-.17.11h0a.15.15,0,0,0,.11.16,6.56,6.56,0,0,0,1.18.11h0A5.92,5.92,0,0,0,285.19,375.36Z" transform="translate(0 8.68)"/><path class="cls-34" d="M285.07,376.82a.14.14,0,0,0-.17.1h0a.15.15,0,0,0,.11.17,6.56,6.56,0,0,0,1.18.11h0A5.92,5.92,0,0,0,285.07,376.82Z" transform="translate(0 8.68)"/><path class="cls-34" d="M284.44,377.62a.14.14,0,0,0-.17.1h0a.14.14,0,0,0,.11.16,5.76,5.76,0,0,0,1.18.11h0A6.68,6.68,0,0,0,284.44,377.62Z" transform="translate(0 8.68)"/><path class="cls-34" d="M284.19,378.53a.15.15,0,0,0-.19.05h0a.15.15,0,0,0,.05.19,6.09,6.09,0,0,0,1.08.47h0A6.44,6.44,0,0,0,284.19,378.53Z" transform="translate(0 8.68)"/><path class="cls-34" d="M280.6,388.22a.2.2,0,0,0,.06-.29h0a.21.21,0,0,0-.29-.07,9.89,9.89,0,0,0-1.45,1.15h0A9.57,9.57,0,0,0,280.6,388.22Z" transform="translate(0 8.68)"/><path class="cls-34" d="M279,387a.22.22,0,0,0,.24-.19h0a.22.22,0,0,0-.19-.24,9.53,9.53,0,0,0-1.85,0h0A9.46,9.46,0,0,0,279,387Z" transform="translate(0 8.68)"/><path class="cls-34" d="M281.11,386.1a.22.22,0,0,0,.24-.18h0a.22.22,0,0,0-.19-.24,9.53,9.53,0,0,0-1.85,0h0A9.43,9.43,0,0,0,281.11,386.1Z" transform="translate(0 8.68)"/><path class="cls-34" d="M279.9,384.27a.21.21,0,0,0,.23-.19h0a.21.21,0,0,0-.18-.24,9.53,9.53,0,0,0-1.85,0h0A9.46,9.46,0,0,0,279.9,384.27Z" transform="translate(0 8.68)"/><path class="cls-34" d="M278.63,385.1a.21.21,0,0,0,.24-.18h0a.22.22,0,0,0-.19-.24,9.52,9.52,0,0,0-1.85,0h0A10.46,10.46,0,0,0,278.63,385.1Z" transform="translate(0 8.68)"/><path class="cls-34" d="M278.62,382.81a.22.22,0,0,0,.24-.19h0a.22.22,0,0,0-.19-.24,10.38,10.38,0,0,0-1.85,0h0A9.64,9.64,0,0,0,278.62,382.81Z" transform="translate(0 8.68)"/><path class="cls-34" d="M279.49,381.48a.22.22,0,0,0,.24-.19h0a.21.21,0,0,0-.18-.24,9.62,9.62,0,0,0-1.86,0h0A9.64,9.64,0,0,0,279.49,381.48Z" transform="translate(0 8.68)"/><path class="cls-34" d="M279.75,380a.22.22,0,0,0,.29-.1h0a.22.22,0,0,0-.1-.29,10.4,10.4,0,0,0-1.76-.59h0A9.55,9.55,0,0,0,279.75,380Z" transform="translate(0 8.68)"/><path class="cls-34" d="M281.79,379.16a.21.21,0,0,0,0,.3h0a.22.22,0,0,0,.3,0s1.4-1.2,1.33-1.29h0A9.42,9.42,0,0,0,281.79,379.16Z" transform="translate(0 8.68)"/><path class="cls-34" d="M282.19,381a.23.23,0,0,0-.23.21h0a.21.21,0,0,0,.21.22,9.72,9.72,0,0,0,1.85-.17h0A9.61,9.61,0,0,0,282.19,381Z" transform="translate(0 8.68)"/><path class="cls-34" d="M280.15,382.06a.21.21,0,0,0-.22.21h0a.21.21,0,0,0,.21.22,9.55,9.55,0,0,0,1.84-.17h0A10.34,10.34,0,0,0,280.15,382.06Z" transform="translate(0 8.68)"/><path class="cls-34" d="M281.53,383.78a.21.21,0,0,0-.22.21h0a.21.21,0,0,0,.21.21,9.53,9.53,0,0,0,1.84-.16h0A9.5,9.5,0,0,0,281.53,383.78Z" transform="translate(0 8.68)"/><path class="cls-34" d="M282.77,382.35a.21.21,0,0,0-.22.21h0a.22.22,0,0,0,.21.22,9.55,9.55,0,0,0,1.84-.17h0A9.5,9.5,0,0,0,282.77,382.35Z" transform="translate(0 8.68)"/><path class="cls-34" d="M282.94,385.1a.22.22,0,0,0-.22.21h0a.21.21,0,0,0,.21.22,9.53,9.53,0,0,0,1.84-.16h0A9.63,9.63,0,0,0,282.94,385.1Z" transform="translate(0 8.68)"/><path class="cls-34" d="M282.2,386.51a.21.21,0,0,0-.22.21h0a.21.21,0,0,0,.21.22,10.4,10.4,0,0,0,1.84-.16h0A9.63,9.63,0,0,0,282.2,386.51Z" transform="translate(0 8.68)"/><path class="cls-34" d="M282.08,388a.22.22,0,0,0-.28.13h0a.21.21,0,0,0,.13.27,9.93,9.93,0,0,0,1.81.42h0A9.84,9.84,0,0,0,282.08,388Z" transform="translate(0 8.68)"/><path class="cls-34" d="M284.19,379.38a.21.21,0,0,0-.09.29h0a.21.21,0,0,0,.28.1,9.7,9.7,0,0,0,1.55-1h0A10,10,0,0,0,284.19,379.38Z" transform="translate(0 8.68)"/><path class="cls-34" d="M285.42,380.75a.22.22,0,0,0-.26.17h0a.21.21,0,0,0,.17.25,9.4,9.4,0,0,0,1.84.17h0A10,10,0,0,0,285.42,380.75Z" transform="translate(0 8.68)"/><path class="cls-34" d="M285,383.33a.21.21,0,0,0-.25.17h0a.21.21,0,0,0,.17.25,9.33,9.33,0,0,0,1.84.17h0A10.4,10.4,0,0,0,285,383.33Z" transform="translate(0 8.68)"/><path class="cls-34" d="M286.33,382.61a.22.22,0,0,0-.26.17h0a.21.21,0,0,0,.17.25,9.4,9.4,0,0,0,1.84.17h0A10,10,0,0,0,286.33,382.61Z" transform="translate(0 8.68)"/><path class="cls-34" d="M286.14,384.9a.22.22,0,0,0-.26.16h0a.22.22,0,0,0,.17.26,10.24,10.24,0,0,0,1.84.17h0A9.24,9.24,0,0,0,286.14,384.9Z" transform="translate(0 8.68)"/><path class="cls-34" d="M285.15,386.15a.2.2,0,0,0-.25.16h0a.22.22,0,0,0,.16.26,10.27,10.27,0,0,0,1.85.17h0A9.58,9.58,0,0,0,285.15,386.15Z" transform="translate(0 8.68)"/><path class="cls-34" d="M284.77,387.58a.22.22,0,0,0-.3.08h0a.21.21,0,0,0,.08.29,10,10,0,0,0,1.7.75h0A9.29,9.29,0,0,0,284.77,387.58Z" transform="translate(0 8.68)"/><path class="cls-34" d="M290.79,391.17a.11.11,0,0,0,.08-.14h0a.13.13,0,0,0-.14-.09,5.3,5.3,0,0,0-.93.37h0A5.49,5.49,0,0,0,290.79,391.17Z" transform="translate(0 8.68)"/><path class="cls-34" d="M290.15,390.28a.12.12,0,0,0,.15-.06h0a.12.12,0,0,0-.06-.16,5.24,5.24,0,0,0-.95-.3h0A5,5,0,0,0,290.15,390.28Z" transform="translate(0 8.68)"/><path class="cls-34" d="M291.39,390.15a.11.11,0,0,0,.15,0h0a.12.12,0,0,0-.05-.16,5.1,5.1,0,0,0-1-.3h0A5,5,0,0,0,291.39,390.15Z" transform="translate(0 8.68)"/><path class="cls-34" d="M291.06,389a.11.11,0,0,0,.15-.06h0a.11.11,0,0,0-.06-.15,5.24,5.24,0,0,0-.95-.3h0A5.73,5.73,0,0,0,291.06,389Z" transform="translate(0 8.68)"/><path class="cls-34" d="M290.27,389.24a.11.11,0,0,0,.15-.06h0a.11.11,0,0,0-.05-.15,5.34,5.34,0,0,0-1-.3h0A5.73,5.73,0,0,0,290.27,389.24Z" transform="translate(0 8.68)"/><path class="cls-34" d="M290.63,388.05a.12.12,0,0,0,.16-.06h0a.12.12,0,0,0-.06-.15,5.1,5.1,0,0,0-1-.3h0A5,5,0,0,0,290.63,388.05Z" transform="translate(0 8.68)"/><path class="cls-34" d="M291.3,387.5a.11.11,0,0,0,.15-.05h0a.12.12,0,0,0-.06-.16,5.1,5.1,0,0,0-1-.3h0A5.49,5.49,0,0,0,291.3,387.5Z" transform="translate(0 8.68)"/><path class="cls-34" d="M291.67,386.79a.11.11,0,0,0,.16,0h0a.12.12,0,0,0,0-.17A5.19,5.19,0,0,0,291,386h0A5.37,5.37,0,0,0,291.67,386.79Z" transform="translate(0 8.68)"/><path class="cls-34" d="M292.85,386.67a.12.12,0,0,0-.07.15h0a.13.13,0,0,0,.15.07,5.46,5.46,0,0,0,.9-.46h0A5.39,5.39,0,0,0,292.85,386.67Z" transform="translate(0 8.68)"/><path class="cls-34" d="M292.77,387.67a.12.12,0,0,0-.15.07h0a.12.12,0,0,0,.08.15,5.17,5.17,0,0,0,1,.21h0A5.39,5.39,0,0,0,292.77,387.67Z" transform="translate(0 8.68)"/><path class="cls-34" d="M291.54,387.91a.11.11,0,0,0-.14.07h0a.12.12,0,0,0,.07.15,5.34,5.34,0,0,0,1,.21h0A5.39,5.39,0,0,0,291.54,387.91Z" transform="translate(0 8.68)"/><path class="cls-34" d="M292,389a.12.12,0,0,0-.15.07h0a.12.12,0,0,0,.08.15,5.34,5.34,0,0,0,1,.21h0A5.39,5.39,0,0,0,292,389Z" transform="translate(0 8.68)"/><path class="cls-34" d="M292.85,388.48a.12.12,0,0,0-.15.07h0a.13.13,0,0,0,.08.15,5.34,5.34,0,0,0,1,.21h0A5.39,5.39,0,0,0,292.85,388.48Z" transform="translate(0 8.68)"/><path class="cls-34" d="M292.5,389.93a.12.12,0,0,0-.15.07h0a.12.12,0,0,0,.07.15,5.34,5.34,0,0,0,1,.21h0A5.3,5.3,0,0,0,292.5,389.93Z" transform="translate(0 8.68)"/><path class="cls-34" d="M291.89,390.54a.12.12,0,0,0-.15.07h0a.12.12,0,0,0,.07.15,5.44,5.44,0,0,0,1,.21h0A5.39,5.39,0,0,0,291.89,390.54Z" transform="translate(0 8.68)"/><path class="cls-34" d="M291.59,391.29a.11.11,0,0,0-.16,0h0a.12.12,0,0,0,0,.17,5.32,5.32,0,0,0,.87.5h0C292.36,391.93,291.59,391.29,291.59,391.29Z" transform="translate(0 8.68)"/><path class="cls-34" d="M294.06,387.17a.11.11,0,0,0-.09.13h0a.11.11,0,0,0,.13.1,4.81,4.81,0,0,0,1-.29h0A5.54,5.54,0,0,0,294.06,387.17Z" transform="translate(0 8.68)"/><path class="cls-34" d="M294.48,388.07a.12.12,0,0,0-.16.05h0a.12.12,0,0,0,0,.16,5,5,0,0,0,.93.38h0A5.77,5.77,0,0,0,294.48,388.07Z" transform="translate(0 8.68)"/><path class="cls-34" d="M293.84,389.34a.11.11,0,0,0-.15.05h0a.13.13,0,0,0,0,.16,5.85,5.85,0,0,0,.93.38h0A5.15,5.15,0,0,0,293.84,389.34Z" transform="translate(0 8.68)"/><path class="cls-34" d="M294.65,389.18a.12.12,0,0,0-.16.05h0a.11.11,0,0,0,.05.15,5.77,5.77,0,0,0,.92.39h0C295.5,389.71,294.65,389.18,294.65,389.18Z" transform="translate(0 8.68)"/><path class="cls-34" d="M294.18,390.33a.11.11,0,0,0-.15.05h0a.13.13,0,0,0,0,.16,5,5,0,0,0,.93.38h0A5.15,5.15,0,0,0,294.18,390.33Z" transform="translate(0 8.68)"/><path class="cls-34" d="M293.48,390.82a.12.12,0,0,0-.16.05h0a.13.13,0,0,0,0,.16,5.85,5.85,0,0,0,.93.38h0A5.07,5.07,0,0,0,293.48,390.82Z" transform="translate(0 8.68)"/><path class="cls-34" d="M293.05,391.51a.12.12,0,0,0-.17,0h0a.11.11,0,0,0,0,.16,5.37,5.37,0,0,0,.76.66h0A5.43,5.43,0,0,0,293.05,391.51Z" transform="translate(0 8.68)"/><path class="cls-34" d="M287.71,398.46a.2.2,0,0,0,.13-.22h0a.19.19,0,0,0-.23-.13,7.89,7.89,0,0,0-1.46.57h0A8,8,0,0,0,287.71,398.46Z" transform="translate(0 8.68)"/><path class="cls-34" d="M286.7,397.06a.18.18,0,0,0,.24-.09h0a.18.18,0,0,0-.09-.24,8.46,8.46,0,0,0-1.5-.48h0A7.79,7.79,0,0,0,286.7,397.06Z" transform="translate(0 8.68)"/><path class="cls-34" d="M288.65,396.87a.18.18,0,0,0,.24-.09h0a.18.18,0,0,0-.09-.24,7.69,7.69,0,0,0-1.5-.47h0A8.41,8.41,0,0,0,288.65,396.87Z" transform="translate(0 8.68)"/><path class="cls-34" d="M288.13,395.08a.18.18,0,0,0,.24-.09h0a.2.2,0,0,0-.09-.25,8.44,8.44,0,0,0-1.5-.47h0A8.47,8.47,0,0,0,288.13,395.08Z" transform="translate(0 8.68)"/><path class="cls-34" d="M286.89,395.44a.18.18,0,0,0,.24-.1h0a.19.19,0,0,0-.09-.24,8.19,8.19,0,0,0-1.5-.47h0A8.47,8.47,0,0,0,286.89,395.44Z" transform="translate(0 8.68)"/><path class="cls-34" d="M287.46,393.58a.19.19,0,0,0,.24-.1h0a.18.18,0,0,0-.09-.24,8.44,8.44,0,0,0-1.5-.47h0A8.47,8.47,0,0,0,287.46,393.58Z" transform="translate(0 8.68)"/><path class="cls-34" d="M288.5,392.72a.18.18,0,0,0,.24-.1h0a.19.19,0,0,0-.09-.24,8.44,8.44,0,0,0-1.5-.47h0A8.47,8.47,0,0,0,288.5,392.72Z" transform="translate(0 8.68)"/><path class="cls-34" d="M289.08,391.59a.19.19,0,0,0,.26,0h0a.2.2,0,0,0,0-.26,8.5,8.5,0,0,0-1.28-.92h0C288,390.48,289.08,391.59,289.08,391.59Z" transform="translate(0 8.68)"/><path class="cls-34" d="M290.94,391.41a.17.17,0,0,0-.1.23h0a.18.18,0,0,0,.23.11,8.37,8.37,0,0,0,1.4-.71h0A8.75,8.75,0,0,0,290.94,391.41Z" transform="translate(0 8.68)"/><path class="cls-34" d="M290.81,393a.18.18,0,0,0-.23.11h0a.18.18,0,0,0,.11.23,8,8,0,0,0,1.54.33h0A8,8,0,0,0,290.81,393Z" transform="translate(0 8.68)"/><path class="cls-34" d="M288.89,393.35a.18.18,0,0,0-.23.12h0a.18.18,0,0,0,.11.23,8,8,0,0,0,1.54.32h0A8.74,8.74,0,0,0,288.89,393.35Z" transform="translate(0 8.68)"/><path class="cls-34" d="M289.58,395.09a.18.18,0,0,0-.23.11h0a.17.17,0,0,0,.11.23,8,8,0,0,0,1.54.33h0A8.74,8.74,0,0,0,289.58,395.09Z" transform="translate(0 8.68)"/><path class="cls-34" d="M290.94,394.24a.18.18,0,0,0-.23.12h0a.19.19,0,0,0,.11.23,8,8,0,0,0,1.54.32h0A8.74,8.74,0,0,0,290.94,394.24Z" transform="translate(0 8.68)"/><path class="cls-34" d="M290.38,396.52a.19.19,0,0,0-.23.11h0a.18.18,0,0,0,.12.23,7.81,7.81,0,0,0,1.54.33h0A8.84,8.84,0,0,0,290.38,396.52Z" transform="translate(0 8.68)"/><path class="cls-34" d="M289.43,397.47a.18.18,0,0,0-.23.12h0a.19.19,0,0,0,.11.23,8.79,8.79,0,0,0,1.54.33h0A8,8,0,0,0,289.43,397.47Z" transform="translate(0 8.68)"/><path class="cls-34" d="M289,398.65a.18.18,0,0,0-.25,0h0a.19.19,0,0,0,0,.26,8.32,8.32,0,0,0,1.36.79h0C290.16,399.65,289,398.65,289,398.65Z" transform="translate(0 8.68)"/><path class="cls-34" d="M292.84,392.19a.19.19,0,0,0-.15.21h0a.18.18,0,0,0,.21.15,8,8,0,0,0,1.5-.44h0A8.12,8.12,0,0,0,292.84,392.19Z" transform="translate(0 8.68)"/><path class="cls-34" d="M293.48,393.61a.17.17,0,0,0-.24.07h0a.18.18,0,0,0,.07.25,8,8,0,0,0,1.45.6h0A8.12,8.12,0,0,0,293.48,393.61Z" transform="translate(0 8.68)"/><path class="cls-34" d="M292.5,395.6a.18.18,0,0,0-.25.07h0a.18.18,0,0,0,.07.25,8.84,8.84,0,0,0,1.45.6h0A8,8,0,0,0,292.5,395.6Z" transform="translate(0 8.68)"/><path class="cls-34" d="M293.76,395.35a.18.18,0,0,0-.25.07h0a.17.17,0,0,0,.07.24,8,8,0,0,0,1.45.6h0A8.66,8.66,0,0,0,293.76,395.35Z" transform="translate(0 8.68)"/><path class="cls-34" d="M293,397.15a.18.18,0,0,0-.25.07h0a.19.19,0,0,0,.07.25,8.36,8.36,0,0,0,1.45.6h0A8,8,0,0,0,293,397.15Z" transform="translate(0 8.68)"/><path class="cls-34" d="M291.92,397.92a.18.18,0,0,0-.25.07h0a.19.19,0,0,0,.07.25,8.84,8.84,0,0,0,1.45.6h0A8,8,0,0,0,291.92,397.92Z" transform="translate(0 8.68)"/><path class="cls-34" d="M291.25,399a.18.18,0,0,0-.26,0h0a.17.17,0,0,0,0,.25s1.11,1.1,1.19,1h0A8.4,8.4,0,0,0,291.25,399Z" transform="translate(0 8.68)"/><path class="cls-34" d="M278,402.56a.29.29,0,0,0,.09-.39h0a.29.29,0,0,0-.39-.09,12.9,12.9,0,0,0-1.89,1.51h0A12.18,12.18,0,0,0,278,402.56Z" transform="translate(0 8.68)"/><path class="cls-34" d="M275.91,401a.28.28,0,0,0,.31-.25h0a.28.28,0,0,0-.24-.31,12.33,12.33,0,0,0-2.43,0h0A13.08,13.08,0,0,0,275.91,401Z" transform="translate(0 8.68)"/><path class="cls-34" d="M278.7,399.78a.28.28,0,0,0,.31-.25h0a.28.28,0,0,0-.24-.31,12.33,12.33,0,0,0-2.43,0h0A13.08,13.08,0,0,0,278.7,399.78Z" transform="translate(0 8.68)"/><path class="cls-34" d="M277.11,397.37a.28.28,0,0,0,.32-.24h0a.3.3,0,0,0-.25-.32,12.33,12.33,0,0,0-2.43,0h0A13.08,13.08,0,0,0,277.11,397.37Z" transform="translate(0 8.68)"/><path class="cls-34" d="M275.45,398.47a.29.29,0,0,0,.32-.25h0a.28.28,0,0,0-.25-.31,13.14,13.14,0,0,0-2.43,0h0A12.51,12.51,0,0,0,275.45,398.47Z" transform="translate(0 8.68)"/><path class="cls-34" d="M275.44,395.46a.28.28,0,0,0,.32-.24h0a.29.29,0,0,0-.25-.32,12.33,12.33,0,0,0-2.43,0h0A13.08,13.08,0,0,0,275.44,395.46Z" transform="translate(0 8.68)"/><path class="cls-34" d="M276.59,393.72a.28.28,0,0,0,.31-.25h0a.28.28,0,0,0-.25-.31,12.23,12.23,0,0,0-2.42,0h0A13.08,13.08,0,0,0,276.59,393.72Z" transform="translate(0 8.68)"/><path class="cls-34" d="M276.92,391.79a.28.28,0,0,0,.38-.13h0a.28.28,0,0,0-.13-.38,13,13,0,0,0-2.3-.77h0A12.52,12.52,0,0,0,276.92,391.79Z" transform="translate(0 8.68)"/><path class="cls-34" d="M279.59,390.67a.3.3,0,0,0,0,.4h0a.28.28,0,0,0,.39.05s1.84-1.57,1.75-1.69h0A13.23,13.23,0,0,0,279.59,390.67Z" transform="translate(0 8.68)"/><path class="cls-34" d="M280.11,393.05a.29.29,0,0,0-.29.27h0a.28.28,0,0,0,.28.29,12.28,12.28,0,0,0,2.41-.22h0A13.09,13.09,0,0,0,280.11,393.05Z" transform="translate(0 8.68)"/><path class="cls-34" d="M277.45,394.48a.28.28,0,0,0-.29.27h0a.27.27,0,0,0,.27.29,12.45,12.45,0,0,0,2.42-.22h0A13.21,13.21,0,0,0,277.45,394.48Z" transform="translate(0 8.68)"/><path class="cls-34" d="M279.25,396.73a.27.27,0,0,0-.28.27h0a.27.27,0,0,0,.27.29,12.45,12.45,0,0,0,2.42-.22h0A13.32,13.32,0,0,0,279.25,396.73Z" transform="translate(0 8.68)"/><path class="cls-34" d="M280.88,394.86a.27.27,0,0,0-.29.27h0a.29.29,0,0,0,.28.29,12.28,12.28,0,0,0,2.41-.22h0A13.09,13.09,0,0,0,280.88,394.86Z" transform="translate(0 8.68)"/><path class="cls-34" d="M281.1,398.47a.28.28,0,0,0-.29.27h0a.28.28,0,0,0,.28.29,12.28,12.28,0,0,0,2.41-.22h0A13.09,13.09,0,0,0,281.1,398.47Z" transform="translate(0 8.68)"/><path class="cls-34" d="M280.13,400.31a.28.28,0,0,0-.29.28h0a.29.29,0,0,0,.27.29,13.2,13.2,0,0,0,2.42-.22h0A12.41,12.41,0,0,0,280.13,400.31Z" transform="translate(0 8.68)"/><path class="cls-34" d="M280,402.26a.29.29,0,0,0-.36.17h0a.28.28,0,0,0,.17.36,12.39,12.39,0,0,0,2.37.55h0A13.39,13.39,0,0,0,280,402.26Z" transform="translate(0 8.68)"/><path class="cls-34" d="M282.74,391a.28.28,0,0,0-.12.38h0a.28.28,0,0,0,.38.12,12.64,12.64,0,0,0,2-1.34h0A12.68,12.68,0,0,0,282.74,391Z" transform="translate(0 8.68)"/><path class="cls-34" d="M284.35,392.76a.3.3,0,0,0-.34.22h0a.28.28,0,0,0,.22.33,13,13,0,0,0,2.42.23h0A13,13,0,0,0,284.35,392.76Z" transform="translate(0 8.68)"/><path class="cls-34" d="M283.79,396.15a.27.27,0,0,0-.33.21h0a.28.28,0,0,0,.22.34,12.86,12.86,0,0,0,2.41.22h0A12.69,12.69,0,0,0,283.79,396.15Z" transform="translate(0 8.68)"/><path class="cls-34" d="M285.54,395.2a.28.28,0,0,0-.33.22h0a.27.27,0,0,0,.21.33,12.18,12.18,0,0,0,2.42.22h0A13,13,0,0,0,285.54,395.2Z" transform="translate(0 8.68)"/><path class="cls-34" d="M285.29,398.2a.27.27,0,0,0-.33.21h0a.29.29,0,0,0,.21.34,13,13,0,0,0,2.42.22h0A13,13,0,0,0,285.29,398.2Z" transform="translate(0 8.68)"/><path class="cls-34" d="M284,399.83a.28.28,0,0,0-.33.22h0a.27.27,0,0,0,.21.33,13,13,0,0,0,2.42.23h0A13,13,0,0,0,284,399.83Z" transform="translate(0 8.68)"/><path class="cls-34" d="M283.5,401.72a.29.29,0,0,0-.39.1h0a.29.29,0,0,0,.1.39,13.07,13.07,0,0,0,2.23,1h0A12.31,12.31,0,0,0,283.5,401.72Z" transform="translate(0 8.68)"/><path class="cls-4" d="M397.51,423.85a3.36,3.36,0,0,1-3.37,3.36H334.26a3.36,3.36,0,0,1-3.37-3.36h0a3.37,3.37,0,0,1,3.37-3.37h59.88a3.37,3.37,0,0,1,3.37,3.37Z" transform="translate(0 8.68)"/><path class="cls-1" d="M397.51,423.85a3.36,3.36,0,0,1-3.37,3.36H334.26a3.36,3.36,0,0,1-3.37-3.36h0a3.37,3.37,0,0,1,3.37-3.37h59.88a3.37,3.37,0,0,1,3.37,3.37Z" transform="translate(0 8.68)"/><path class="cls-28" d="M381.57,422.11h-42.1c4.57,0,11-13.45,11-13.45h19S375.85,422.11,381.57,422.11Z" transform="translate(0 8.68)"/><path class="cls-1" d="M369.47,408.66h-19s-.48,1.1-1.64,3.14c2.63.52,14.15.44,17.28.62,1.82.11,4,.07,5.53,3.63.36.86,1.47,3.19.16,3.36-1.46.2-27.79.72-28.95.86a5.43,5.43,0,0,1-3.38,1.84h42.1C375.85,422.11,369.47,408.66,369.47,408.66Z" transform="translate(0 8.68)"/><path class="cls-28" d="M393.91,423.85a3.36,3.36,0,0,1-3.37,3.36H330.66a3.36,3.36,0,0,1-3.37-3.36h0a3.37,3.37,0,0,1,3.37-3.37h59.88a3.37,3.37,0,0,1,3.37,3.37Z" transform="translate(0 8.68)"/><path class="cls-28" d="M428.21,327.45H310.42c-9.31,0-9.31,13.11-9.31,19.14V408a2.75,2.75,0,0,0,2.75,2.75H426.64a2.76,2.76,0,0,0,1.57-.49Z" transform="translate(0 8.68)"/><path class="cls-1" d="M428.21,327.45H310.42c-9.31,0-9.31,13.11-9.31,19.14V408a2.75,2.75,0,0,0,2.75,2.75H426.64a2.76,2.76,0,0,0,1.57-.49Z" transform="translate(0 8.68)"/><path class="cls-28" d="M424.48,408a2.75,2.75,0,0,1-2.75,2.75H299A2.75,2.75,0,0,1,296.2,408V346.59c0-6,0-19.14,9.3-19.14H428.28c-4.09,4.1-3.8,7.78-3.8,20.77Z" transform="translate(0 8.68)"/><path class="cls-1" d="M349.49,369.54a10.21,10.21,0,1,0,10.21-10.21A10.21,10.21,0,0,0,349.49,369.54Z" transform="translate(0 8.68)"/><path class="cls-28" d="M478.24,424.69H227.6a6.94,6.94,0,1,0,0,13.87H478.24a6.94,6.94,0,1,0,0-13.87Z" transform="translate(0 8.68)"/><path class="cls-23" d="M484,427.83a6.91,6.91,0,0,0-5.8-3.14H227.6a6.94,6.94,0,0,0-5.81,3.14Z" transform="translate(0 8.68)"/><path class="cls-23" d="M315.12,428.25a.21.21,0,0,1-.21.21H225.78a.21.21,0,0,1-.21-.21h0a.21.21,0,0,1,.21-.21h89.13a.22.22,0,0,1,.21.21Z" transform="translate(0 8.68)"/><path class="cls-23" d="M359.74,432.88c0,.12,0,.21-.08.21h-35.5c-.05,0-.09-.09-.09-.21h0c0-.11,0-.21.09-.21h35.5s.08.1.08.21Z" transform="translate(0 8.68)"/><path class="cls-23" d="M414.7,432.88c0,.12,0,.21,0,.21H402.06s0-.09,0-.21h0c0-.11,0-.21,0-.21h12.61s0,.1,0,.21Z" transform="translate(0 8.68)"/><path class="cls-23" d="M261,433.09a.47.47,0,0,1,0,.21H248.3a.47.47,0,0,1,0-.21h0a.51.51,0,0,1,0-.21h12.62a.51.51,0,0,1,0,.21Z" transform="translate(0 8.68)"/><path class="cls-23" d="M501.5,431.42c0,.11-.05.21-.11.21H457.28s-.1-.1-.1-.21h0c0-.12.05-.21.1-.21h44.11c.06,0,.11.09.11.21Z" transform="translate(0 8.68)"/><path class="cls-23" d="M436.48,434.85c0,.11,0,.21,0,.21H424.07s0-.1,0-.21h0c0-.12,0-.21,0-.21h12.38s0,.09,0,.21Z" transform="translate(0 8.68)"/><path class="cls-13" d="M502.84,285.47c-3.5,3.29-2,17.35,1.63,20.31,4.07,3.3,21.62,4.08,24.94.71,6.08-6.14,6.51-7.42,4.27-8.54-1.45-.72-7.95,2.61-11.77,1.3-2.73-.94.59-5-7.92-8.88-6.27-2.86-5.72-1.23-7.77-1.2C503.13,289.2,504.7,283.71,502.84,285.47Z" transform="translate(0 8.68)"/><path class="cls-12" d="M566.59,349.15c-.54,3.7-3.71,6.31-7.08,5.82s-5.68-3.89-5.14-7.59,3.71-6.3,7.08-5.81S567.12,345.45,566.59,349.15Z" transform="translate(0 8.68)"/><g class="cls-35"><ellipse class="cls-36" cx="281.14" cy="212.15" rx="244.61" ry="212.15"/><path class="cls-37" d="M329.13,205.66c38.92,45.21,80.74,65.81,79.91,66.72S369.51,249.94,326.15,209c-68.54-64.77-84.73-55.37-83.91-56.28S276.05,144,329.13,205.66Z" transform="translate(0 8.68)"/><path class="cls-37" d="M211.8,200.19c10.8,12.55,22.41,18.27,22.18,18.52s-11-6.23-23-17.61c-19-18-23.52-15.37-23.29-15.62S197.06,183.07,211.8,200.19Z" transform="translate(0 8.68)"/><path class="cls-37" d="M237,275.76c-15.47-17.82-32-25.89-31.71-26.25s15.67,8.81,32.88,24.94c27.21,25.5,33.6,21.75,33.27,22.11S258,300.05,237,275.76Z" transform="translate(0 8.68)"/><path class="cls-37" d="M344.84,145.5c-15.47-17.82-32-25.9-31.71-26.26s15.67,8.81,32.88,25c27.21,25.5,33.6,21.75,33.28,22.11S365.93,169.79,344.84,145.5Z" transform="translate(0 8.68)"/><path class="cls-11" d="M376.52,360.67,372,365.11a12,12,0,0,1-17-.21L224,230.63a12,12,0,0,1,.21-17l4.55-4.44a12,12,0,0,1,17,.21l131,134.27A12,12,0,0,1,376.52,360.67Z" transform="translate(0 8.68)"/><path class="cls-12" d="M230.65,210.68c13.83,14.72,29.58,27.45,43.37,42.24,6.51,7,97.56,97.28,99.29,100.54a33.45,33.45,0,0,1,2.48,7.92A13,13,0,0,0,376,343L246.45,210.16a13.06,13.06,0,0,0-17.69-.86A6.21,6.21,0,0,1,230.65,210.68Z" transform="translate(0 8.68)"/><rect class="cls-11" x="306.06" y="163.53" width="30.36" height="211.58" rx="12" transform="translate(-96.78 309.54) rotate(-44.29)"/><path class="cls-12" d="M251.26,193.69c13.84,14.72,29.58,27.45,43.37,42.24,6.51,7,97.56,97.28,99.29,100.54a33,33,0,0,1,2.49,7.92,13,13,0,0,0,.22-18.4L267.06,193.17a13,13,0,0,0-17.69-.86A6.09,6.09,0,0,1,251.26,193.69Z" transform="translate(0 8.68)"/><path class="cls-11" d="M419.63,324.24l-4.55,4.44a12,12,0,0,1-17-.21l-131-134.27a12,12,0,0,1,.21-17l4.55-4.44a12,12,0,0,1,17,.21l131,134.28A12,12,0,0,1,419.63,324.24Z" transform="translate(0 8.68)"/><path class="cls-12" d="M274.3,175.05c13.84,14.72,29.58,27.45,43.37,42.24,6.51,7,97.56,97.28,99.29,100.54a33,33,0,0,1,2.49,7.92,13.06,13.06,0,0,0,.23-18.4L290.1,174.53a13,13,0,0,0-17.68-.86A6.06,6.06,0,0,1,274.3,175.05Z" transform="translate(0 8.68)"/><path class="cls-11" d="M440.49,306.4l-4.55,4.44a12,12,0,0,1-17-.21L288,176.36a12,12,0,0,1,.21-17l4.55-4.44a12,12,0,0,1,17,.21l131,134.27A12,12,0,0,1,440.49,306.4Z" transform="translate(0 8.68)"/><path class="cls-12" d="M294.64,155.94c13.84,14.72,29.58,27.45,43.37,42.24,6.51,7,97.56,97.28,99.29,100.53a33.24,33.24,0,0,1,2.49,7.93,13.06,13.06,0,0,0,.22-18.41L310.44,155.42a13,13,0,0,0-17.69-.86A5.83,5.83,0,0,1,294.64,155.94Z" transform="translate(0 8.68)"/><g class="cls-38"><path class="cls-11" d="M376.57,277.41l-35.05-55.07c.65-6.78,1.65-23.93,2-32.43-3.67-2.73-6.64-6.11-10.13-9.17-4.19-3.68-8.34-7.18-11.25-12a5.34,5.34,0,0,1,.13-6.1l-28.39,9.71a11.72,11.72,0,0,0-6.33-1.27,11.89,11.89,0,0,0-5.81,1.84,8.75,8.75,0,0,0-7.83-.39A3.9,3.9,0,0,0,272,170c-1.92-.9-4.86,1.68-4.77,4.9a6,6,0,0,1-.54,2.63,7.59,7.59,0,0,1-.54,1h0l-.82-.71-.2-.17-.09-.07a2.39,2.39,0,0,0-.22-.16l0,0a.75.75,0,0,0-.18-.09h0a.23.23,0,0,0-.14,0h0a.2.2,0,0,0-.07.1v0a.64.64,0,0,0,0,.24c.62,4.8-4.79,9.3-5.72,14.94a12.06,12.06,0,0,0-2.53,5.32,11.69,11.69,0,0,0,.4,6.62L238.64,238.9h-.11l0,.14-2.18,4.19c-2,3.85,2.23,8.29,6.89,9l19.61,3.33c4.35.55,19.63,2,29.72,2.74l47.23,46.59c2.3,2.51,12.52-.64,19.82-4.66.83-.44,1.62-.92,2.39-1.41l.45-.3c.22-.14.44-.28.64-.43.38-.27.75-.53,1.09-.8C370.79,292.2,377.85,279.73,376.57,277.41Zm-89.25-44.76c-6.71,1.07-18.73,2.88-32.4,4.51,2.65-9.56,5.72-22.77,7.08-29.35a7,7,0,0,0,3.59-2.71c1.23.91,3.89,3,6.37,4.7a2.18,2.18,0,0,0,.56,3.5c2,1.28,3.55.5,5.26.23.81.92,2.81,2.07,6.61,3.92a8.49,8.49,0,0,0,4.74.08,68.26,68.26,0,0,1,2.77,10.22A30.69,30.69,0,0,0,287.32,232.65ZM317,208.12a57.29,57.29,0,0,0-7.9,4.23,6.24,6.24,0,0,0-.68.36c-.44-.27-.89-.55-1.34-.86a19.81,19.81,0,0,1-2-1.62,5.59,5.59,0,0,0,.9-1.08c2.27-3.7-.74-16.47-4.81-18.28a1.44,1.44,0,0,0-.48-.13,54.6,54.6,0,0,0-6-6.48,19.73,19.73,0,0,0-.73-3.15,6.54,6.54,0,0,0,2.57-2.79c6.71-.38,20.23-1.49,30.07-2.71C322.75,189.7,319,201.93,317,208.12Z" transform="translate(0 8.68)"/></g><path class="cls-15" d="M284.8,226s11.27-2.51,15.33-4.83,12.1-7.61,5.67-10.34c-2.36-1-10.24-4-12.14-11-2.84-10.59-20.82-4.26-17.28,2.31A68.17,68.17,0,0,1,284.8,226Z" transform="translate(0 8.68)"/><path class="cls-16" d="M305.8,210.79c-2.36-1-10.24-4-12.14-11-2.84-10.59-20.82-4.26-17.28,2.31,2.34,4.33,5.24,7.44,7.28,15.22,2.21,1.61,6.12-1.25,6.34-1.45,1.59-1.42,3.82-5,5.72-5.9,4.46-2.21,6.53.28,11.58,2.59a7.56,7.56,0,0,1,1.47.86C310,212,308.11,211.77,305.8,210.79Z" transform="translate(0 8.68)"/><path class="cls-15" d="M284.75,223.1l16.85-4.45c-.19-.11-1.05-9.54-1.24-9.65,1.07-.84-.19-.25,1.22-.95,0,0,16.09-9,22.41-2.4l40.68,69.73c1.28,2.33-1.43,12.52-8,17.66s-18.65,9.19-21.5,6.08L276,240.74C276.09,236.87,278.38,228.21,284.75,223.1Z" transform="translate(0 8.68)"/><path class="cls-15" d="M284.75,223.1s36.76,11,59.64,45.54c0,0-43.84-59.53-44-59.64,1.07-.84-.19-.25,1.22-.95,0,0,16.78-11.17,23.1-4.61L369,273.11c1.28,2.33-5.78,14.79-12.35,19.93s-21.55,10.71-24.4,7.6l-59.18-58.38C273.19,238.39,278.38,228.21,284.75,223.1Z" transform="translate(0 8.68)"/><path class="cls-15" d="M284.5,168.65l43.25-14.79c6.75-2.39,12.62,12.3,2.53,15.35-4.38,2.3-45.79,5.41-45.44,4.91C287.17,170.79,284.5,168.65,284.5,168.65Z" transform="translate(0 8.68)"/><path class="cls-15" d="M271.41,173.21c.21,3.25,4.39,5.64,9.33,5.33s8.8-3.21,8.59-6.46-4.38-5.64-9.33-5.33S271.21,170,271.41,173.21Z" transform="translate(0 8.68)"/><path class="cls-15" d="M284.75,223.1s36.76,11,59.64,45.54c0,0-43.84-59.53-44-59.64,1.07-.84-.19-.25,1.22-.95,0,0,16.78-11.17,23.1-4.61L369,273.11c1.28,2.33-5.78,14.79-12.35,19.93s-21.55,10.71-24.4,7.6l-59.18-58.38C273.19,238.39,278.38,228.21,284.75,223.1Z" transform="translate(0 8.68)"/><path class="cls-15" d="M309.18,209.22c-.12,6,11.22,9.49,15.28,13.42l6.19-2.89c.77-7.42,3.17-34.41,3.29-40L335.69,162c-.08-1.94-12.54-6.64-12.54-6.64C316.57,182.3,309.18,209.22,309.18,209.22Z" transform="translate(0 8.68)"/><path class="cls-15" d="M284.5,168.65l43.25-14.79c6.75-2.39,12.62,12.3,2.53,15.35-4.38,2.3-45.79,5.41-45.44,4.91C287.17,170.79,284.5,168.65,284.5,168.65Z" transform="translate(0 8.68)"/><path class="cls-15" d="M271.41,173.21c.21,3.25,4.39,5.64,9.33,5.33s8.8-3.21,8.59-6.46-4.38-5.64-9.33-5.33S271.21,170,271.41,173.21Z" transform="translate(0 8.68)"/><path class="cls-15" d="M285.4,228.51c6,.76,8.66,12.64,12,17.23l-6.4,5.51c-7.45-.33-30-.32-35.63-1L235.71,248c-1.9-.36-4.73-13.37-4.73-13.37C258.6,232,285.4,228.51,285.4,228.51Z" transform="translate(0 8.68)"/><path class="cls-15" d="M279.75,178.45l.8-2.42c.69-2,2.54-2.4,4.31-1.06,3,2.3,1.1,4.78,3.36,6.71l-3.75,3.12Z" transform="translate(0 8.68)"/><path class="cls-15" d="M267.72,203l-2.41,1.66c-2,1.38-2.07,3.23-.34,4.35,3,1.9,5-.78,8,.49l2.31-4.59Z" transform="translate(0 8.68)"/><path class="cls-15" d="M249.48,199.22l-20.65,39.72c-3.35,6.33,10.33,14.29,14.82,4.75,2.91-4,12-44.51,11.5-44.24C251.51,201.27,249.48,199.22,249.48,199.22Z" transform="translate(0 8.68)"/><path class="cls-15" d="M256.21,186c3.19.67,4.94,5.16,3.9,10s-4.45,8.22-7.64,7.55-4.94-5.17-3.91-10S253,185.36,256.21,186Z" transform="translate(0 8.68)"/><path class="cls-15" d="M294.6,188.57c2.71,4.77,5.19,13,3.31,16.24-2.12,3.6-14.79,8.64-18.69,7.63-10.76-2.79-32.6-18.16-20.05-33.13,3.35-4,7.15-12.55,16.1-8.19C281,173.89,291.54,183.2,294.6,188.57Z" transform="translate(0 8.68)"/><path class="cls-16" d="M294.6,188.57c-3.06-5.37-13.63-14.68-19.33-17.45-8.95-4.36-12.75,4.2-16.1,8.19a17.17,17.17,0,0,0-4,8.14,3.38,3.38,0,0,1,.62-.18,37.18,37.18,0,0,1,12.09-.42c.31.05.05-1.18.29-1.07a20.93,20.93,0,0,0,5.81-2.56c1.4-1.15,4.53-7.62,7.23-6.17,5.56,3,9.54,6.64,12,10.7,6.3,10.39,4.72,17.06,4.72,17.06C299.79,201.59,297.31,193.34,294.6,188.57Z" transform="translate(0 8.68)"/><path class="cls-13" d="M256.8,173.33c-.28-2.17,4.94,5.64,5.61.79.31-2.17,4.1-4.55,8.75-3.42l-8.82,16.52c-.76.84-1.52,1.69-2.25,2.56a5.94,5.94,0,0,0,.33,7.57c-1.6.58-3.21,1.17-4.89,1.66C244.08,187.56,257.78,180.81,256.8,173.33Z" transform="translate(0 8.68)"/><path class="cls-13" d="M264.47,165.67c1.92.91,2.74,4.05,1.83,7s-6.12,4.77-8,3.87,1.53-2.09,1.43-6C259.61,167.35,262.55,164.77,264.47,165.67Z" transform="translate(0 8.68)"/><path class="cls-13" d="M276.42,177.36c2.77-3.46,9.84,2.08,9.84,2.08.71-1-4-5.71-8.89-8.18C274.31,169.72,274.43,179.86,276.42,177.36Z" transform="translate(0 8.68)"/><path class="cls-21" d="M276.42,177.36c2.77-3.46,9.84,2.08,9.84,2.08.71-1-4-5.71-8.89-8.18C274.31,169.72,274.43,179.86,276.42,177.36Z" transform="translate(0 8.68)"/><path class="cls-13" d="M274.37,168.68c2.54,1.64,4.42,4.49,2.61,9.27-3.24,8.59-8.83,6.22-14.64,16.94-.49.92,2.56,1.27,2.46,5.55s4.73,7.41,4.73,7.41c-1.15,1.28-11-6.76-12.08-7.48-5.44-3.51-6.07-13.44-1.4-22.18S268.93,165.18,274.37,168.68Z" transform="translate(0 8.68)"/><path class="cls-21" d="M266.8,205.4s-8.25-5.92-10.24-8c-2.81-3-4.72-5.07-3.79-9.34.45-2.06,3.69-6.49,4.85-8.2,1.47-2.17,1.54-4.14,1.54-6.65a7.37,7.37,0,0,1-.55,1c-1.07-.93-1.92-1.78-1.81-.87,1,7.48-12.72,14.23-1.27,25.68l.26-.08a8.15,8.15,0,0,0,1.66,1.44c1.12.72,10.93,8.76,12.08,7.48A30.79,30.79,0,0,1,266.8,205.4Z" transform="translate(0 8.68)"/><path class="cls-13" d="M293.63,186.57c4.08,1.81,7.08,14.58,4.82,18.28-2.54,4.15-17.66,10.22-21.61,8.3-7.21-3.51-8-4.5-6.37-6.16,1-1.08,7.77-.16,10.71-2.49,2.1-1.66-2.05-4.18,4.2-10.21,4.6-4.43,4.63-2.83,6.43-3.44C294.53,189.93,291.46,185.6,293.63,186.57Z" transform="translate(0 8.68)"/><path class="cls-16" d="M332.36,216h0a10.62,10.62,0,0,1-.19,15l-4.59,4.47c-4.16,4.07-10.9,1.82-15-2.35l1.08,1.08c-4.06-4.16-5.06-9.81-.9-13.88l4.59-4.48A10.62,10.62,0,0,1,332.36,216Z" transform="translate(0 8.68)"/><rect class="cls-15" x="311.24" y="211.59" width="21.17" height="27.58" rx="8.99" transform="translate(258.42 -153.68) rotate(45.71)"/><path class="cls-16" d="M289.93,256.8h0a10.61,10.61,0,0,0,15-.18l4.48-4.59c4.06-4.17,1.81-10.9-2.36-15l1.09,1.09c-4.17-4.07-9.82-5.07-13.89-.9l-4.48,4.59A10.61,10.61,0,0,0,289.93,256.8Z" transform="translate(0 8.68)"/><rect class="cls-15" x="288.5" y="232.68" width="21.17" height="27.58" rx="8.99" transform="translate(257.11 -130.13) rotate(44.29)"/><path class="cls-16" d="M306.16,163.27c6.77-2.21,12.65-5.36,19.91-5.73,3.37-.17,5.8,2.87,6,6,1.24,22.49-8.23,39.35,3.31,60.15,5.2,9.37,12.54,23,20,33.28,3.18,4.42,8.15,7.65,10.81,12.47a56.67,56.67,0,0,1,2.74,6.11,3.62,3.62,0,0,0,.15-2.41l-37.76-59.59c1.38-11.79,2.57-26.16,2.68-31.64L335.69,162h0c-.06-4.72-3.84-9.58-7.94-8.13l-4.49,1.53-.11,0,0,.09-35,12C294.15,166.08,300.29,165.18,306.16,163.27Z" transform="translate(0 8.68)"/></g><circle class="cls-36" cx="462.86" cy="218.72" r="10.61" transform="translate(-19.09 400.03) rotate(-45)"/><circle class="cls-36" cx="411.89" cy="203.13" r="18.49" transform="matrix(0.97, -0.24, 0.24, 0.97, -36.29, 111.57)"/><path class="cls-36" d="M485.93,247a6.62,6.62,0,1,0,6.62-6.62A6.62,6.62,0,0,0,485.93,247Z" transform="translate(0 8.68)"/><path class="cls-36" d="M397.08,139.5c8.5-1.76,17.77-8.64,15.74-16.66-1.92-7.57-13.84-11-22.19-8.79-19.65,5.29-28,25.64-28,25.64C373.07,137.53,388.59,141.25,397.08,139.5Z" transform="translate(0 8.68)"/><path class="cls-36" d="M373.24,108.93c2.33-8.36.47-19.75-7.59-21.62-7.61-1.76-16.16,7.24-18,15.69-4.31,19.89,9.94,36.66,9.94,36.66C360.48,129.37,370.91,117.28,373.24,108.93Z" transform="translate(0 8.68)"/><path class="cls-36" d="M163.79,136c-6-.93-12.71-5.41-11.56-11.08,1.07-5.36,9.28-8.19,15.18-6.91,13.91,3,20.47,16.93,20.47,16.93C180.49,133.76,169.78,136.91,163.79,136Z" transform="translate(0 8.68)"/><path class="cls-36" d="M160.79,161.59c-3.47.75-8.07-.29-8.64-3.62-.54-3.15,3.34-6.42,6.83-7,8.23-1.28,14.73,4.94,14.73,4.94C169.44,156.87,164.25,160.84,160.79,161.59Z" transform="translate(0 8.68)"/></g></g></svg>