<svg width="193" height="193" viewBox="0 0 193 193" fill="none" xmlns="http://www.w3.org/2000/svg">
    <path d="M157.79 99.0708C157.79 101.369 155.782 102.794 153.302 102.794H109.53C108.669 102.794 107.732 102.688 107.883 102.067C108.147 101.02 116.04 98.5774 117.644 98.3176C119.325 98.0448 123.96 99.4351 125.561 99.2832C130.214 98.8388 146.717 96.0271 153.079 95.3197C155.977 94.9979 157.79 96.8522 157.79 99.0708Z" fill="#F48E62" />
    <path d="M160.829 100.092C158.392 95.622 155.575 88.9825 153.058 83.1599C155.959 81.9672 159.075 80.773 161.494 79.8369C163.791 86.5662 167.488 97.344 168.245 99.9465C169.638 104.74 162.88 103.85 160.829 100.092Z" fill="#F48E62" />
    <path d="M153.571 84.653C150.562 78.1736 143.711 60.851 146.546 61.6728C153.424 63.6676 158.755 70.6845 162.243 81.6388L153.571 84.653Z" fill="#7B7BB8" />
    <path d="M144.018 105.588H175.01L183.465 170.41H135.563L144.018 105.588ZM174.406 106.279H144.626L136.351 169.718H182.677L174.406 106.279Z" fill="#6565A3" />
    <path d="M23.807 105.588H54.8039L63.2602 170.41H15.3589L23.807 105.588ZM54.1945 106.279H24.4212L16.1463 169.718H62.4727L54.1945 106.279Z" fill="#6565A3" />
    <path d="M15.7513 106.28L183.069 106.28V102.796L15.7513 102.796V106.28Z" fill="#D1BFB1" />
    <path d="M15.7509 106.28H62.8647V102.796H15.7509V106.28Z" fill="#B89F93" />
    <path d="M106.043 179.012C138.915 179.012 165.562 177.89 165.562 176.506C165.562 175.122 138.915 174 106.043 174C73.1719 174 46.5244 175.122 46.5244 176.506C46.5244 177.89 73.1719 179.012 106.043 179.012Z" fill="#E6DBCC" />
    <path d="M134.542 176.78H172.12L161.977 135.539L161.304 135.704L171.237 176.087H134.542V176.78Z" fill="#6565A3" />
    <path d="M75.107 176.611H94.8753C95.9111 174.64 95.5288 172.426 96.2002 169.861L89.8825 167.433C89.635 168.286 89.2061 169.075 88.6252 169.746C88.0443 170.417 87.3252 170.955 86.517 171.323C82.266 173.225 74.2983 173.61 75.107 176.611Z" fill="#AD8D7D" />
    <path d="M57.0979 176.611H76.8662C77.902 174.639 77.42 172.364 78.0931 169.792C76.0836 169.044 74.4695 168.433 72.1055 167.536C71.3262 169.137 70.4832 170.591 68.838 171.328C64.5853 173.225 56.2827 173.61 57.0979 176.611Z" fill="#C7A695" />
    <path d="M99.5787 94.5371C102.477 91.0131 109.082 82.9784 112.356 78.7715C113.688 80.3513 118.346 85.2836 120.788 87.4499C116.205 91.8611 107.354 99.0316 104.859 100.507C102.003 102.195 100.267 102.841 98.3747 102.794C91.7711 102.608 97.7685 96.746 99.5787 94.5371Z" fill="#F48E62" />
    <path d="M106.327 121.291C106.676 120.449 107.187 119.683 107.832 119.038C108.477 118.393 109.242 117.882 110.085 117.533C110.927 117.184 111.83 117.004 112.742 117.005C113.654 117.005 114.557 117.184 115.399 117.534C118.933 119.004 121.245 123.415 119.237 127.767L98.5147 170.812L89.8003 167.476L106.327 121.291Z" fill="#222342" />
    <path d="M94.9914 118.182C94.3183 121.68 97.3293 124.683 104.356 126.706C114.485 129.622 129.757 132.906 145.972 132.906C155.146 132.906 158.245 131.131 160.934 127.794C165.033 122.701 164.746 119.489 163.919 113.172H104.894C98.0351 113.172 95.5469 115.297 94.9914 118.182Z" fill="#48487C" />
    <path d="M115.828 135.974H166.028V132.489H115.828V135.974Z" fill="#B89F93" />
    <path d="M94.4549 118.553C96.3876 114.055 100.392 112.853 103.828 114.742C107.767 116.906 109.03 122.721 106.654 126.887L80.8507 170.877L71.9272 167.536C71.9272 167.536 89.3625 130.406 94.4549 118.553Z" fill="#48487C" />
    <path d="M130.893 62.3065C131.693 62.0173 132.227 61.537 132.165 60.6874C132.103 59.8379 132.043 58.9393 132.02 58.5309C130.867 58.6387 128.797 59.1452 128.099 58.8576C126.995 58.41 126.87 55.1 126.642 53.2637C126.478 51.9355 125.776 52.3864 125.575 51.7247C125.469 51.3767 126.936 49.877 127.524 48.5324C127.908 47.6567 127.645 47.5717 127.259 46.9509C126.903 46.3808 129.231 42.4222 130.432 41.2769C132.995 38.8263 139.409 38.1728 142.321 42.3993C145.915 47.611 140.767 51.2771 141.153 53.9891C141.316 55.1736 141.497 56.7501 141.777 58.673C141.925 59.6843 142.159 59.98 142.933 60.2529C140.176 61.0534 135.41 61.916 130.893 62.3065Z" fill="#FA9F78" />
    <path d="M133.583 50.0583C133.297 51.9012 137.305 55.2487 140.545 54.6001C143.812 53.9466 144.846 48.882 145.198 47.0539C145.851 43.6688 144.944 42.1037 142.985 41.2411C142.347 39.5697 141.236 38.1729 139.109 37.5994C135.433 36.5982 131.544 36.7067 127.93 37.9115C127.133 38.8917 127.359 42.2327 129.125 42.9467C128.934 43.4106 129.572 45.956 129.576 47.8953C129.564 48.391 129.499 48.8839 129.381 49.3656C129.786 49.6897 130.245 49.9412 130.736 50.109C130.899 49.1974 131.149 46.2419 132.859 46.8595C134.341 47.4002 133.689 49.3836 133.583 50.0583Z" fill="#1D2247" />
    <path d="M127.161 46.776C127.147 46.4329 127.112 46.214 127.357 46.2058C127.727 46.5326 127.98 47.3168 127.924 47.6762C127.869 48.0356 127.176 47.1354 127.161 46.776Z" fill="#1D2247" />
    <path d="M127.373 58.5048C126.747 57.7125 127.018 57.0688 126.814 56.0722C126.556 54.8191 125.853 54.4172 126.392 52.5809C127.649 52.6234 128.627 52.4812 129.384 49.3297C129.813 49.6221 130.267 49.8774 130.74 50.0927C130.165 53.3128 131.687 53.95 132.047 58.5522C129.969 58.9884 128.101 59.4295 127.373 58.5048Z" fill="#1D2247" />
    <path d="M132.077 52.1299C132.251 52.1291 132.423 52.0877 132.579 52.009C133.245 51.6741 133.6 50.7886 133.703 50.1318C133.697 50.0977 133.681 50.0661 133.657 50.0415C133.633 50.017 133.601 50.0009 133.567 49.9955C133.533 49.99 133.498 49.9955 133.467 50.0112C133.436 50.0269 133.411 50.052 133.396 50.0828C133.278 50.8409 132.894 51.5025 132.44 51.7313C132.312 51.7949 132.17 51.8251 132.027 51.8191C131.884 51.8131 131.745 51.7711 131.623 51.697C131.589 51.6911 131.554 51.6961 131.523 51.7113C131.492 51.7264 131.467 51.751 131.451 51.7814C131.435 51.8119 131.428 51.8467 131.433 51.8808C131.438 51.9149 131.454 51.9466 131.477 51.9714C131.661 52.0729 131.867 52.1273 132.077 52.1299Z" fill="#C96547" />
    <path d="M165.854 109.935L161.3 132.416L161.979 132.553L166.533 110.072L165.854 109.935Z" fill="#6565A3" />
    <path d="M120.715 87.5543C122.644 85.7343 124.393 83.8963 126.306 81.8884C127.428 91.1322 129.418 104.627 130.88 113.171H163.919C162.144 95.259 158.892 81.1157 155.914 73.3456C152.156 63.5088 148.217 62.1757 142.931 60.2577C140.201 60.2577 132.336 61.0059 127.219 63.9254C121.321 67.291 116.304 73.4828 112.141 78.7778C113.799 81.0438 118.58 85.8045 120.715 87.5543Z" fill="#7B7BB8" />
    <path d="M118.424 85.4944C119.31 86.3358 120.115 87.0628 120.712 87.5546C122.643 85.7346 124.391 83.8967 126.302 81.8888C127.426 91.1341 129.416 104.629 130.877 113.172H163.919C163.684 110.808 163.396 108.508 163.055 106.271C156.373 102.467 143.574 103.475 138.568 98.6918C132.393 92.7891 133.868 78.7781 127.915 77.5398C124.138 76.7556 121.912 81.3644 118.424 85.4944Z" fill="#6565A3" />
    <path d="M142.89 110.007H169.626C169.985 110.007 170.333 109.883 170.611 109.656C170.889 109.43 171.081 109.114 171.153 108.762L174.151 94.2579C174.351 93.2907 174.414 92.1013 172.82 92.3741C163.416 93.9883 156.535 93.7138 145.888 92.3741C145.152 92.2827 144.509 92.8937 144.358 93.6191L141.361 108.122C141.312 108.349 141.316 108.585 141.37 108.811C141.425 109.037 141.529 109.248 141.676 109.429C141.822 109.61 142.007 109.756 142.217 109.856C142.427 109.956 142.657 110.007 142.89 110.007Z" fill="#E6DBCC" />
    <path d="M145.331 109.934L140.778 132.415L141.457 132.552L146.01 110.071L145.331 109.934Z" fill="#222342" />
    <path d="M101.989 95.3113C99.8191 90.268 91.2174 69.2809 90.2895 65.8925C89.8892 64.4221 92.0098 60.6123 91.9101 58.5015C91.8497 57.2239 91.3351 55.7241 91.2191 54.3844C91.1455 53.5185 90.5362 53.5267 90.2911 53.8861C89.6997 54.7504 89.9039 57.0785 89.7879 56.8269C89.3092 55.7486 88.8796 54.8206 88.3175 53.7228C87.7768 52.6723 86.7197 51.6986 86.3211 51.3963C85.9568 51.1202 85.2461 50.7804 85.1285 51.4061C85.068 51.7329 86.0614 52.8634 86.7312 54.1116C87.4206 55.3924 87.7866 56.7828 87.7 56.902C87.4419 57.2516 86.9419 55.5836 86.0254 54.0299C85.3294 52.8746 84.4894 51.8123 83.5258 50.8686C82.7416 50.2151 82.1894 50.6775 82.2956 51.1006C82.4018 51.5237 83.7496 53.1542 84.6972 54.7422C85.5451 56.1603 86.0303 57.5898 85.8049 57.7842C85.7036 57.8725 85.1791 56.5491 84.3639 55.3336C83.3837 53.8633 82.2727 52.6053 81.7973 52.3537C81.2533 52.0694 80.6831 52.5726 81.3153 53.5431C81.5032 53.8322 82.1976 55.0314 83.0455 56.3204C83.8493 57.5425 84.2838 58.8151 84.0764 59.0243C83.913 59.1876 83.681 58.3708 82.7596 57.3578C81.7695 56.2681 80.6635 55.2601 80.4005 55.1082C79.4202 54.5445 79.3875 55.4709 79.747 55.9757C80.474 56.9886 80.7778 57.2696 81.5718 58.3299C81.957 58.8426 82.2888 59.3933 82.5619 59.9735C82.869 60.627 83.2301 61.1906 83.1174 62.8178C82.8462 66.7061 85.0893 67.3694 85.336 68.2092C86.8962 73.478 91.0116 91.5962 92.2614 96.1282C93.2008 99.5247 93.7644 102.794 97.2704 102.794C101.054 102.794 103.673 99.2274 101.989 95.3113Z" fill="#F48E62" />
    <path d="M107.548 176.78H145.89L141.461 135.585L140.773 135.658L145.119 176.087H108.44L118.741 135.707L118.071 135.536L107.548 176.78Z" fill="#48487C" />
    <path d="M30.4747 57.4676C30.3113 56.4253 30.5547 55.4418 31.1282 54.7687C31.3466 54.5107 31.619 54.3038 31.9261 54.1626C32.2332 54.0215 32.5676 53.9495 32.9057 53.9518H72.207C73.7787 53.9518 75.2899 55.4761 75.5774 57.3483L79.8709 85.331H34.7534L30.4747 57.4676Z" fill="#E6CFC3" />
    <path d="M68.7929 61.1382H71.5213C71.5581 61.1395 71.5947 61.1324 71.6284 61.1174C71.662 61.1025 71.6919 61.0801 71.7156 61.0519C71.7394 61.0238 71.7564 60.9906 71.7655 60.9549C71.7745 60.9192 71.7754 60.8819 71.768 60.8458L71.3497 58.1175C71.3349 58.0378 71.2933 57.9655 71.2318 57.9126C71.1703 57.8597 71.0926 57.8294 71.0115 57.8267H68.275C68.2384 57.8254 68.202 57.8325 68.1685 57.8474C68.1351 57.8622 68.1054 57.8845 68.0818 57.9125C68.0582 57.9405 68.0413 57.9735 68.0323 58.009C68.0233 58.0445 68.0225 58.0816 68.03 58.1175L68.4564 60.8458C68.4702 60.9258 68.5113 60.9986 68.5726 61.0519C68.6339 61.1052 68.7117 61.1357 68.7929 61.1382Z" fill="white" />
    <path d="M67.7009 58.9918L67.8545 59.972C67.8644 60.0254 67.8584 60.0806 67.8372 60.1305C67.816 60.1805 67.7805 60.2231 67.7352 60.2531L66.7974 60.8477C66.7449 60.8733 66.6871 60.8861 66.6287 60.885C66.5703 60.884 66.5129 60.8692 66.4613 60.8418C66.4097 60.8144 66.3654 60.7752 66.3318 60.7274C66.2982 60.6796 66.2764 60.6246 66.2681 60.5667L65.9283 58.3955C65.9184 58.3403 65.9251 58.2834 65.9476 58.2321C65.9701 58.1807 66.0073 58.1372 66.0546 58.1071C66.1019 58.0769 66.1571 58.0616 66.2131 58.0629C66.2692 58.0642 66.3236 58.0822 66.3694 58.1145L67.495 58.7092C67.5487 58.7374 67.5952 58.7775 67.6309 58.8265C67.6666 58.8755 67.6906 58.9321 67.7009 58.9918Z" fill="white" />
    <path d="M53.9927 77.4611C55.4108 79.3236 58.1555 82.9619 59.9852 85.3276H64.63C64.4993 85.1479 64.3664 84.9534 64.2314 84.7443C63.0044 82.841 59.5948 77.1099 58.2535 74.8422C57.2226 75.749 54.9827 76.837 53.9927 77.4611Z" fill="#FA9F78" />
    <path d="M63.9619 85.3277H67.7702C68.3469 81.838 69.2405 76.1788 69.5673 73.7281C69.6212 73.3344 70.4446 73.1106 70.2763 71.3347C70.2138 70.8923 70.2702 70.4411 70.4397 70.0277C70.5244 69.7611 70.6338 69.5029 70.7665 69.2566C71.0409 68.7665 71.1504 68.6227 71.3987 68.1473C71.5229 67.9071 71.4935 67.4856 71.1455 67.7601C70.8383 68.0926 70.5606 68.4512 70.3155 68.8318C69.9888 69.3219 69.9202 69.6928 69.8581 69.6193C69.796 69.5458 69.9153 68.9364 70.1848 68.3613C70.4757 67.7552 70.7109 67.1915 70.7763 67.0543C70.9903 66.5969 70.7763 66.3779 70.5769 66.5168C70.4136 66.641 70.0215 67.2389 69.6849 67.9284C69.4056 68.4953 69.2356 69.1112 69.1948 69.072C69.1098 68.9887 69.2618 68.3237 69.5493 67.6604C69.8761 66.9154 70.3384 66.1557 70.3662 65.9483C70.394 65.7408 70.1865 65.5529 69.9087 65.8666C69.5632 66.3282 69.2731 66.8288 69.0445 67.3582C68.7324 68.0852 68.5789 68.858 68.4776 68.7027C68.4416 68.6505 68.5527 68.0068 68.7864 67.4072C69.02 66.8076 69.3549 66.2848 69.3271 66.141C69.2749 65.8568 69.0184 66.0234 68.8893 66.1557C68.5937 66.4782 68.3585 66.8512 68.1949 67.2569C68.0071 67.7666 67.8682 68.1996 67.7048 68.7027C67.6672 68.822 67.7048 67.7519 67.4696 67.368C67.3732 67.2046 67.1428 67.2144 67.1428 67.6114C67.1216 68.2306 66.9582 68.9184 66.9582 69.5098C66.9582 70.4786 67.8568 72.2104 67.6983 72.8753C67.2653 74.6937 65.0304 81.8201 63.9619 85.3277Z" fill="#FA9F78" />
    <path d="M51.7806 71.9916C52.7608 73.9325 52.0942 75.2803 54.0678 77.9286C55.396 77.1967 58.0492 75.612 58.5393 74.9699C57.924 73.8249 57.1937 72.7454 56.3599 71.7482C55.1673 70.2582 53.0434 69.6717 52.1122 69.5214C50.8493 69.3188 51.0405 70.5213 51.7806 71.9916Z" fill="white" />
    <path d="M40.0551 79.3269C40.6286 80.4869 40.872 82.6957 41.0582 85.3277H56.5788C56.5548 84.8833 56.5287 84.4569 56.5004 84.0484C56.3827 82.3265 57.644 81.8429 57.3172 79.8563C57.0967 78.4758 55.5201 76.5202 54.8666 75.0318C54.3961 73.9487 53.656 72.3051 53.4224 71.0504C53.2067 69.9068 52.7428 69.6699 52.3523 69.58C50.5014 69.1064 48.6002 68.8574 46.6897 68.8383C45.1715 68.8062 43.6543 68.9421 42.1659 69.2435C39.0422 69.897 37.9443 72.6384 37.5424 74.7051C37.0196 77.4285 39.101 77.4024 40.0551 79.3269Z" fill="white" />
    <path d="M36.8057 85.3278H40.9129C41.4258 82.4034 41.9307 79.0853 42.1937 77.2996C41.2755 76.3422 40.3247 75.491 39.2252 75.1382C37.9885 74.7412 37.7026 75.0418 37.5408 75.8815C37.1079 78.141 36.8775 82.191 36.8057 85.3278Z" fill="#FA9F78" />
    <path d="M45.6855 82.5159C46.8291 83.3606 50.2747 83.3982 52.3218 84.3294C52.8974 84.5981 53.4397 84.9331 53.9375 85.3276H56.576C56.5521 84.8832 56.5259 84.4568 56.4976 84.0484C56.38 82.3248 57.6412 81.8428 57.3145 79.8562C57.3145 79.8023 57.2965 79.7468 57.2834 79.6928C57.2834 79.7206 57.2736 79.7435 57.2736 79.7467C56.5384 81.9245 54.1319 81.5635 51.0654 81.5635C47.8764 81.5586 44.1972 81.4132 45.6855 82.5159Z" fill="#F0DDD3" />
    <path d="M49.6843 61.862C49.4523 60.4407 48.856 59.5748 48.08 59.2578C47.6748 59.0945 47.2778 58.9311 47.2631 58.6288C47.237 58.2122 47.5735 57.7646 48.3463 57.8332C48.7437 57.8881 49.1224 58.0366 49.4513 58.2663C49.7802 58.4961 50.0499 58.8006 50.2382 59.1549C50.7757 60.2136 50.48 62.0156 51.6399 63.6199C53.687 66.448 53.4076 68.4624 50.6597 69.1943C49.8085 69.4198 49.4883 69.3185 49.1664 69.1943C48.6583 68.9999 48.3496 68.6878 48.3675 67.9379C48.3855 67.1881 48.9753 66.0526 49.3592 65.5363C49.8281 64.8959 49.9065 63.2311 49.6843 61.862Z" fill="#1D2247" />
    <path d="M44.3929 68.91C44.5586 68.8992 44.7201 68.8534 44.8668 68.7756C45.0135 68.6978 45.1421 68.5899 45.2441 68.4589C45.3462 68.3279 45.4193 68.1767 45.4587 68.0154C45.4981 67.8541 45.5029 67.6863 45.4728 67.523C45.2996 66.2699 45.0823 64.5022 44.9435 63.29C44.8944 62.8783 45.2702 62.6642 45.5545 63.1429C46.1933 64.2016 46.0658 64.2506 46.953 64.9172C47.9152 65.6393 49.0442 65.2341 49.1602 65.9775C49.2827 66.7682 49.4118 67.523 49.5147 68.1013C49.5677 68.3711 49.7003 68.6187 49.8954 68.8124C50.0905 69.006 50.3392 69.1368 50.6093 69.1878C51.0112 69.258 51.4017 69.3381 51.7856 69.4247C51.9539 69.8081 52.0804 70.2084 52.163 70.6189C52.676 73.2329 52.2267 75.6835 50.1126 75.6835C47.9496 75.6835 45.3748 72.434 44.0857 70.0847C43.8904 69.7374 43.7478 69.363 43.6626 68.9738C43.9044 68.952 44.1478 68.9307 44.3929 68.91Z" fill="#FA9F78" />
    <path d="M47.5879 67.291C48.1805 67.4159 48.7986 67.3089 49.3147 66.992C49.2608 66.6653 49.2053 66.3255 49.1514 65.9775C49.0354 65.2341 47.9065 65.6409 46.9442 64.9172C46.0571 64.2506 46.1861 64.2016 45.5457 63.143C45.4036 62.9061 45.2402 62.8391 45.1176 62.8816C45.1291 63.0711 45.0409 63.1953 45.0572 63.3064C45.2091 64.4761 45.6078 66.7878 47.5879 67.291Z" fill="#C96547" />
    <path d="M45.1406 62.5695C45.4935 64.2523 46.1355 66.1997 48.0274 66.3696C49.3344 66.4856 49.4308 65.9611 49.8245 65.2374C50.3783 64.2343 50.0304 61.8637 49.8686 61.1089C49.5762 59.7594 48.8312 58.9671 46.9622 58.8658C44.8825 58.7579 44.7877 60.8818 45.1406 62.5695Z" fill="#FA9F78" />
    <path d="M43.2698 63.2871C42.9267 61.0929 42.6621 59.6144 43.9233 58.1816C44.3489 57.6739 44.9268 57.317 45.5713 57.1636C46.2158 57.0103 46.8925 57.0688 47.5012 57.3304C48.0763 57.5951 48.3605 57.9708 48.4439 58.541C48.5272 59.1112 48.0158 59.8006 47.4277 60.312C46.2661 61.3266 44.6748 61.2367 45.1045 63.4504C45.3283 64.6071 47.5371 69.6799 44.4771 69.6799C40.6346 69.6799 43.7975 66.6657 43.2698 63.2871Z" fill="#1D2247" />
    <path d="M45.1653 61.9833C45.3189 62.3656 45.4692 63.2249 45.4185 63.4765C45.3891 63.6187 45.2012 63.6709 45.064 63.6709C44.7062 63.6709 44.154 62.725 44.0086 62.1532C43.8632 61.5814 44.0494 61.2579 44.3354 61.2661C44.6539 61.2742 44.9349 61.4082 45.1653 61.9833Z" fill="#FA9F78" />
    <path d="M48.8646 64.7588C48.9137 64.847 48.6686 65.1443 48.1458 65.1018C47.5969 65.0577 47.3093 64.7097 47.3976 64.6117C47.4482 64.5546 47.8044 64.6918 48.1654 64.731C48.5265 64.7702 48.8222 64.6869 48.8646 64.7588Z" fill="white" />
    <path d="M45.9053 61.9798C45.9261 61.9803 45.9465 61.9746 45.9641 61.9635C46.2241 61.7844 46.5311 61.6861 46.8468 61.6808C47.1624 61.6756 47.4726 61.7637 47.7384 61.9341C47.7618 61.9496 47.7904 61.9553 47.8179 61.9498C47.8455 61.9443 47.8698 61.928 47.8854 61.9047C47.9011 61.8815 47.907 61.853 47.9018 61.8254C47.8966 61.7979 47.8807 61.7735 47.8576 61.7576C47.5572 61.5638 47.2064 61.4629 46.8489 61.4676C46.4915 61.4722 46.1433 61.5822 45.8481 61.7838C45.8364 61.7914 45.8263 61.8012 45.8184 61.8127C45.8105 61.8243 45.805 61.8372 45.8021 61.8509C45.7992 61.8645 45.799 61.8786 45.8016 61.8923C45.8042 61.9061 45.8094 61.9191 45.8171 61.9308C45.8265 61.9457 45.8396 61.9579 45.855 61.9665C45.8704 61.975 45.8877 61.9796 45.9053 61.9798Z" fill="#222342" />
    <path d="M46.6603 62.3128C46.6725 62.3979 46.7129 62.4764 46.7752 62.5357C46.8374 62.595 46.9178 62.6316 47.0034 62.6395C47.0421 62.6373 47.0798 62.6266 47.1139 62.6082C47.1479 62.5897 47.1775 62.5639 47.2004 62.5327C47.2234 62.5015 47.2392 62.4656 47.2466 62.4276C47.2541 62.3896 47.253 62.3504 47.2436 62.3128C47.2312 62.2278 47.1907 62.1494 47.1285 62.0902C47.0663 62.031 46.986 61.9943 46.9005 61.9861C46.8619 61.9885 46.8244 61.9994 46.7905 62.018C46.7566 62.0365 46.7271 62.0623 46.7042 62.0934C46.6813 62.1246 46.6656 62.1603 46.658 62.1982C46.6504 62.2361 46.6512 62.2752 46.6603 62.3128Z" fill="#222342" />
    <path d="M49.07 62.4832C49.0807 62.57 49.1207 62.6504 49.1834 62.7113C49.2461 62.7722 49.3277 62.8099 49.4147 62.8182C49.4541 62.8159 49.4926 62.8049 49.5272 62.7859C49.5619 62.7668 49.5918 62.7403 49.6148 62.7081C49.6379 62.676 49.6534 62.6391 49.6603 62.6002C49.6672 62.5613 49.6654 62.5213 49.6548 62.4832C49.6426 62.3979 49.6019 62.3192 49.5394 62.2598C49.4768 62.2005 49.396 62.1641 49.3101 62.1565C49.2714 62.1587 49.2337 62.1694 49.1997 62.1879C49.1656 62.2064 49.136 62.2321 49.1131 62.2633C49.0902 62.2945 49.0744 62.3304 49.0669 62.3685C49.0595 62.4065 49.0605 62.4457 49.07 62.4832Z" fill="#222342" />
    <path d="M48.3233 64.244C48.5017 64.2551 48.6774 64.1965 48.8134 64.0806C48.849 64.0416 48.875 63.9949 48.8894 63.9442C48.9039 63.8934 48.9064 63.84 48.8968 63.7882C48.869 63.5889 48.8379 63.3879 48.8053 63.1853C48.7514 62.8406 48.6942 62.4845 48.655 62.1218C48.655 62.063 48.655 61.9747 48.8085 61.9078C49.1353 61.7607 49.8182 61.862 50.0208 62.0875C50.0306 62.0973 50.0424 62.1052 50.0552 62.1105C50.0681 62.1159 50.082 62.1186 50.0959 62.1186C50.1099 62.1186 50.1237 62.1159 50.1366 62.1105C50.1495 62.1052 50.1612 62.0973 50.1711 62.0875C50.181 62.0776 50.1888 62.0659 50.1941 62.053C50.1995 62.0401 50.2022 62.0263 50.2022 62.0123C50.2022 61.9984 50.1995 61.9845 50.1941 61.9716C50.1888 61.9587 50.181 61.947 50.1711 61.9372C49.9064 61.6431 49.1287 61.5189 48.7138 61.7052C48.6253 61.7348 48.5496 61.7936 48.4991 61.872C48.4486 61.9504 48.4264 62.0437 48.436 62.1365C48.4752 62.5041 48.5324 62.8635 48.588 63.2098C48.619 63.4108 48.6501 63.6101 48.6778 63.8094C48.683 63.8301 48.6832 63.8517 48.6784 63.8724C48.6735 63.8931 48.6638 63.9124 48.6501 63.9287C48.5349 64.0074 48.3946 64.0405 48.2563 64.0218C48.2422 64.0204 48.228 64.022 48.2145 64.0265C48.2011 64.031 48.1887 64.0382 48.1783 64.0477C48.1678 64.0573 48.1595 64.0689 48.1538 64.0819C48.1481 64.0949 48.1452 64.1089 48.1452 64.1231C48.1443 64.137 48.1462 64.1508 48.1508 64.164C48.1553 64.1771 48.1625 64.1892 48.1717 64.1995C48.181 64.2099 48.1923 64.2183 48.2048 64.2242C48.2174 64.2302 48.231 64.2336 48.2449 64.2342L48.3233 64.244Z" fill="#C96547" />
    <path d="M50.1106 62.1236C50.1367 62.1233 50.1617 62.1134 50.1809 62.0959C50.1908 62.086 50.1986 62.0743 50.2039 62.0614C50.2093 62.0485 50.212 62.0347 50.212 62.0207C50.212 62.0067 50.2093 61.9929 50.2039 61.98C50.1986 61.9671 50.1908 61.9554 50.1809 61.9456C49.962 61.7037 49.4343 61.5959 49.0503 61.6335C48.7775 61.6612 48.5863 61.7527 48.4965 61.9014C48.4825 61.9256 48.4784 61.9543 48.4851 61.9814C48.4918 62.0085 48.5088 62.032 48.5324 62.0469C48.5567 62.0614 48.5858 62.0657 48.6133 62.059C48.6408 62.0523 48.6646 62.035 48.6795 62.0109C48.7291 61.9569 48.7899 61.9143 48.8576 61.8861C48.9253 61.8579 48.9983 61.8447 49.0716 61.8475C49.4359 61.8116 49.8721 61.9227 50.0224 62.0893C50.0337 62.1012 50.0474 62.1104 50.0627 62.1164C50.0779 62.1223 50.0943 62.1248 50.1106 62.1236Z" fill="#222342" />
    <path d="M37.0403 90.9429H76.3318C76.4388 90.9429 76.5415 90.9004 76.6171 90.8247C76.6928 90.7491 76.7353 90.6464 76.7353 90.5394C76.7353 90.4324 76.6928 90.3297 76.6171 90.2541C76.5415 90.1784 76.4388 90.1359 76.3318 90.1359H37.0403C35.8526 90.1359 34.6975 88.9187 34.4688 87.4238L29.8518 57.345C29.7277 56.5281 29.8992 55.788 30.324 55.2946C30.4656 55.124 30.6435 54.987 30.8447 54.8937C31.0459 54.8005 31.2654 54.7532 31.4872 54.7555H70.7803C70.8874 54.7555 70.99 54.713 71.0657 54.6373C71.1414 54.5616 71.1839 54.459 71.1839 54.352C71.1839 54.245 71.1414 54.1423 71.0657 54.0666C70.99 53.991 70.8874 53.9484 70.7803 53.9484H31.4856C31.1478 53.9462 30.8136 54.0182 30.5068 54.1593C30.1999 54.3005 29.9278 54.5074 29.7097 54.7653C29.1314 55.4384 28.8928 56.4219 29.0562 57.4643L33.6699 87.5382C33.9493 89.4137 35.4621 90.9429 37.0403 90.9429Z" fill="#6565A3" />
    <path d="M35.0883 87.5415L30.4747 57.4676C30.3113 56.4253 30.5547 55.4418 31.1282 54.7687C31.3466 54.5107 31.619 54.3038 31.9261 54.1626C32.2332 54.0215 32.5676 53.9495 32.9057 53.9518H72.207C73.7787 53.9518 75.2899 55.4761 75.5774 57.3483L80.1911 87.4222C80.3545 88.4646 80.1127 89.4481 79.5376 90.1212C79.3194 90.379 79.0472 90.5857 78.7404 90.7269C78.4335 90.868 78.0995 90.9401 77.7617 90.938H38.4588C36.8887 90.9429 35.3759 89.4138 35.0883 87.5415ZM32.9089 54.7556C32.6869 54.7534 32.4672 54.8007 32.2658 54.8939C32.0643 54.9872 31.8861 55.1241 31.7441 55.2947C31.3209 55.7849 31.1494 56.5364 31.2736 57.3451L35.8872 87.419C36.116 88.9138 37.2694 90.131 38.4588 90.131H77.7585C77.9802 90.1333 78.1997 90.086 78.4009 89.9928C78.6022 89.8995 78.7801 89.7625 78.9217 89.5918C79.3465 89.1017 79.518 88.3502 79.3938 87.5415L74.7801 57.4676C74.5498 55.9727 73.3964 54.7556 72.207 54.7556H32.9089Z" fill="#6565A3" />
    <path d="M30.4747 57.4676C30.3113 56.4253 30.5547 55.4418 31.1282 54.7687C31.3466 54.5107 31.619 54.3038 31.9261 54.1626C32.2332 54.0215 32.5676 53.9495 32.9057 53.9518H72.207C73.7787 53.9518 75.2899 55.4761 75.5774 57.3483L79.8709 85.331H34.7534L30.4747 57.4676ZM74.7802 57.4676C74.5498 55.9727 73.3964 54.7556 72.207 54.7556H32.9089C32.6869 54.7534 32.4672 54.8007 32.2658 54.8939C32.0643 54.9872 31.8861 55.1241 31.7441 55.2947C31.3209 55.7849 31.1494 56.5364 31.2736 57.3451L35.4412 84.5207H78.9299L74.7802 57.4676Z" fill="#6565A3" />
    <path d="M56.2157 87.7931C56.1737 87.5616 56.1822 87.3239 56.2406 87.0961C56.2989 86.8683 56.4058 86.6557 56.5539 86.473C56.6742 86.3303 56.8243 86.2157 56.9936 86.1372C57.163 86.0587 57.3475 86.0183 57.5341 86.0188C58.3183 86.0188 59.0388 86.7115 59.1679 87.597C59.2101 87.8287 59.2017 88.0667 59.1433 88.2948C59.085 88.523 58.978 88.7358 58.8297 88.9187C58.7092 89.0611 58.559 89.1756 58.3897 89.254C58.2204 89.3325 58.036 89.373 57.8494 89.3729C57.0734 89.3729 56.3513 88.6785 56.2157 87.7931ZM57.1665 86.9991C57.0942 87.0934 57.0431 87.2022 57.0166 87.3181C56.9901 87.4339 56.9889 87.5541 57.0129 87.6705C57.0897 88.1606 57.4671 88.5658 57.8576 88.5658C57.9286 88.5664 57.9989 88.5512 58.0634 88.5212C58.1278 88.4913 58.1847 88.4473 58.2301 88.3926C58.3022 88.2979 58.3532 88.1888 58.3797 88.0727C58.4062 87.9566 58.4075 87.8362 58.3837 87.7195C58.3085 87.2294 57.9295 86.8259 57.5406 86.8259C57.4693 86.825 57.3987 86.84 57.3339 86.87C57.2692 86.8999 57.212 86.9441 57.1665 86.9991Z" fill="#6565A3" />
    <path d="M45.1929 102.794H66.0509V101.987H54.8483L57.1355 90.1262H47.6321L45.1929 102.794ZM54.0314 101.987H46.1715L48.2954 90.9382H56.1553L54.0314 101.987Z" fill="#6565A3" />
    <path d="M111.302 32.1592H92.3819C91.9301 32.1508 91.4956 31.9834 91.155 31.6864C90.8144 31.3894 90.5893 30.9818 90.5195 30.5353L88.8955 19.2624C88.8598 19.0448 88.872 18.8219 88.9312 18.6094C88.9905 18.397 89.0954 18.2 89.2386 18.0322C89.3811 17.8698 89.5571 17.7402 89.7546 17.6524C89.952 17.5647 90.1662 17.5209 90.3822 17.5241H116.666C117.118 17.5325 117.552 17.7 117.893 17.997C118.233 18.294 118.458 18.7016 118.528 19.1481L120.152 30.4209C120.188 30.6384 120.177 30.8612 120.118 31.0737C120.059 31.2862 119.954 31.4833 119.811 31.6511C119.667 31.8145 119.49 31.9447 119.291 32.0325C119.092 32.1202 118.876 32.1635 118.659 32.1592H116.145L116.842 37.0016L111.302 32.1592Z" fill="#E6CFC3" />
    <path d="M115.437 22.4467H92.9914L92.761 20.9763C92.7501 20.928 92.7518 20.8778 92.766 20.8303C92.7801 20.7829 92.8063 20.7399 92.842 20.7056C92.8776 20.6712 92.9216 20.6467 92.9695 20.6343C93.0174 20.6219 93.0677 20.6221 93.1156 20.6349C93.2318 20.6541 93.3396 20.7079 93.425 20.7892C93.5103 20.8704 93.5693 20.9755 93.5942 21.0907L93.6808 21.6445H115.196C115.313 21.6516 115.426 21.6939 115.52 21.7658C115.613 21.8377 115.683 21.936 115.72 22.048C115.739 22.0931 115.745 22.1422 115.74 22.1907C115.734 22.2391 115.717 22.2854 115.688 22.3251C115.66 22.3649 115.622 22.3969 115.578 22.4182C115.535 22.4394 115.486 22.4492 115.437 22.4467Z" fill="white" />
    <path d="M104.865 25.1209H93.4044L93.1725 23.6506C93.1621 23.6023 93.1642 23.5522 93.1786 23.505C93.193 23.4578 93.2191 23.415 93.2546 23.3807C93.29 23.3464 93.3337 23.3217 93.3813 23.3089C93.429 23.2961 93.4791 23.2956 93.527 23.3075C93.6436 23.327 93.7517 23.381 93.8373 23.4625C93.9229 23.5441 93.9821 23.6494 94.0073 23.7649L94.0939 24.3188H104.618C104.736 24.3257 104.849 24.3678 104.943 24.4398C105.036 24.5117 105.106 24.6102 105.143 24.7223C105.161 24.767 105.168 24.8156 105.163 24.8636C105.157 24.9117 105.14 24.9576 105.113 24.9972C105.085 25.0369 105.048 25.069 105.005 25.0906C104.961 25.1122 104.913 25.1226 104.865 25.1209Z" fill="white" />
    <path d="M113.639 27.7953H93.8279L93.5959 26.3249C93.5855 26.2767 93.5875 26.2266 93.6019 26.1794C93.6162 26.1322 93.6424 26.0895 93.6779 26.0552C93.7135 26.021 93.7572 25.9964 93.8049 25.9839C93.8526 25.9713 93.9027 25.9712 93.9505 25.9834C94.067 26.0031 94.175 26.0572 94.2606 26.1387C94.3461 26.2202 94.4054 26.3254 94.4308 26.4409L94.5174 26.9947H113.395C113.513 27.0013 113.627 27.0433 113.721 27.1153C113.814 27.1873 113.884 27.2859 113.921 27.3983C113.939 27.4433 113.945 27.492 113.939 27.5401C113.933 27.5881 113.916 27.6339 113.888 27.6734C113.86 27.7128 113.822 27.7446 113.779 27.7659C113.735 27.7872 113.687 27.7973 113.639 27.7953Z" fill="white" />
    <path d="M62.8164 42.2133H60.1828C59.731 42.204 59.2967 42.0368 58.9553 41.7408C58.6139 41.4448 58.3869 41.0385 58.3138 40.5926L56.6163 29.3198C56.5787 29.1022 56.5892 28.879 56.6471 28.6659C56.705 28.4528 56.8088 28.255 56.9512 28.0863C57.0934 27.9233 57.2693 27.7933 57.4668 27.7053C57.6643 27.6173 57.8786 27.5733 58.0948 27.5765H84.3785C84.8306 27.5856 85.2652 27.7529 85.6067 28.0493C85.9482 28.3457 86.175 28.7525 86.2475 29.1989L87.945 40.4717C87.9837 40.6885 87.9746 40.9111 87.9181 41.1239C87.8617 41.3367 87.7593 41.5345 87.6182 41.7036C87.4761 41.8665 87.3001 41.9965 87.1026 42.0845C86.9051 42.1726 86.6908 42.2165 86.4746 42.2133H67.5755L63.5336 46.9724L62.8164 42.2133Z" fill="#7B7BB8" />
    <path d="M83.2574 32.5006H60.8065L60.5925 31.0302C60.5824 30.9819 60.5849 30.9318 60.5997 30.8848C60.6145 30.8377 60.6411 30.7952 60.677 30.7613C60.7128 30.7274 60.7568 30.7032 60.8046 30.6911C60.8524 30.679 60.9026 30.6793 60.9503 30.6921C61.0661 30.7115 61.1734 30.7654 61.2582 30.8467C61.343 30.928 61.4014 31.0329 61.4257 31.1479L61.5057 31.6984H83.0172C83.135 31.7047 83.2481 31.7467 83.3414 31.8188C83.4348 31.8909 83.504 31.9896 83.54 32.102C83.5581 32.1471 83.5645 32.196 83.5588 32.2443C83.5531 32.2925 83.5354 32.3386 83.5073 32.3782C83.4791 32.4179 83.4415 32.4499 83.3979 32.4712C83.3542 32.4926 83.3059 32.5027 83.2574 32.5006Z" fill="white" />
    <path d="M72.6565 35.1753H61.1958L60.9801 33.7049C60.9701 33.6564 60.9727 33.6061 60.9875 33.5588C61.0024 33.5116 61.0291 33.4689 61.0651 33.4348C61.1011 33.4008 61.1453 33.3765 61.1933 33.3643C61.2413 33.3521 61.2916 33.3524 61.3395 33.3651C61.4556 33.3854 61.5629 33.44 61.6476 33.5218C61.7323 33.6036 61.7906 33.7089 61.815 33.8242L61.895 34.3764H72.4163C72.534 34.3829 72.647 34.425 72.7403 34.497C72.8337 34.569 72.903 34.6677 72.9391 34.7799C72.9565 34.8248 72.9624 34.8734 72.9563 34.9212C72.9503 34.969 72.9324 35.0146 72.9044 35.0538C72.8764 35.093 72.8391 35.1246 72.7958 35.1458C72.7525 35.167 72.7046 35.1771 72.6565 35.1753Z" fill="white" />
    <path d="M81.399 37.846H61.5849L61.3693 36.3756C61.3593 36.3271 61.3618 36.2768 61.3767 36.2296C61.3916 36.1823 61.4183 36.1396 61.4543 36.1056C61.4903 36.0715 61.5344 36.0473 61.5824 36.0351C61.6305 36.0228 61.6808 36.0231 61.7287 36.0358C61.8437 36.0558 61.9502 36.1097 62.0343 36.1906C62.1185 36.2715 62.1765 36.3758 62.2009 36.49L62.2809 37.0406H81.1523C81.2699 37.0473 81.3828 37.0895 81.4761 37.1615C81.5694 37.2335 81.6387 37.332 81.6751 37.4441C81.694 37.4888 81.7014 37.5376 81.6966 37.586C81.6917 37.6343 81.6747 37.6807 81.6472 37.7207C81.6197 37.7608 81.5825 37.7933 81.5391 37.8151C81.4957 37.837 81.4475 37.8476 81.399 37.846Z" fill="white" />
  </svg>
