<svg width="18" height="20" viewBox="0 0 18 20" fill="none" xmlns="http://www.w3.org/2000/svg">
<path d="M15.1568 14.8819L13.9698 16.0558C13.095 16.9144 11.9598 18.0184 10.564 19.3679C9.69166 20.2113 8.30786 20.2112 7.43576 19.3677L3.94466 15.9718C3.5059 15.541 3.13863 15.1777 2.84279 14.8819C-0.557622 11.4815 -0.557622 5.9683 2.84279 2.56789C6.2432 -0.832524 11.7564 -0.832524 15.1568 2.56789C18.5572 5.9683 18.5572 11.4815 15.1568 14.8819ZM11.5 8.9996C11.5 7.61875 10.3806 6.49936 8.99976 6.49936C7.61896 6.49936 6.49958 7.61875 6.49958 8.9996C6.49958 10.3804 7.61896 11.4998 8.99976 11.4998C10.3806 11.4998 11.5 10.3804 11.5 8.9996Z" fill="#6264A7"/>
</svg>